<svg width="38" height="36" viewBox="0 0 38 36" fill="none" xmlns="http://www.w3.org/2000/svg">
<path d="M29.417 29.6084H8.71024C8.22798 29.6078 7.76566 29.416 7.42465 29.0749C7.08364 28.7339 6.89179 28.2716 6.89116 27.7893V16.5069C6.89116 16.3501 6.95345 16.1996 7.06436 16.0887C7.17527 15.9778 7.3257 15.9155 7.48254 15.9155C7.63939 15.9155 7.78979 15.9778 7.9007 16.0887C8.01161 16.1996 8.07393 16.3501 8.07393 16.5069V27.7876C8.07409 27.9563 8.14117 28.118 8.26047 28.2373C8.37977 28.3566 8.54153 28.4237 8.71024 28.4239H29.417C29.5856 28.4236 29.7473 28.3564 29.8666 28.2372C29.9858 28.1179 30.053 27.9562 30.0533 27.7876V16.5069C30.0533 16.3501 30.1156 16.1996 30.2265 16.0887C30.3374 15.9778 30.4878 15.9155 30.6447 15.9155C30.8015 15.9155 30.9519 15.9778 31.0629 16.0887C31.1738 16.1996 31.2361 16.3501 31.2361 16.5069V27.7876C31.2359 28.2701 31.0443 28.7329 30.7032 29.0743C30.3621 29.4157 29.8995 29.6078 29.417 29.6084V29.6084Z" fill="#CED0D0"/>
<path d="M17.2071 18.6205C17.172 18.6206 17.137 18.6174 17.1024 18.6111L5.98741 16.6264C5.85072 16.602 5.72698 16.5302 5.63789 16.4237C5.54879 16.3172 5.50001 16.1827 5.50009 16.0439V9.56055C5.50009 9.40371 5.56241 9.25329 5.67332 9.14238C5.78423 9.03147 5.93463 8.96917 6.09148 8.96917H32.0331C32.1108 8.96917 32.1877 8.98446 32.2594 9.01418C32.3312 9.0439 32.3964 9.08746 32.4513 9.14238C32.5062 9.19729 32.5498 9.26248 32.5795 9.33423C32.6092 9.40598 32.6245 9.48289 32.6245 9.56055V16.0463C32.6246 16.1851 32.5758 16.3196 32.4867 16.4261C32.3976 16.5326 32.2739 16.6043 32.1372 16.6288L21.0482 18.6087C20.9707 18.625 20.8907 18.6256 20.813 18.6104C20.7353 18.5952 20.6614 18.5645 20.5957 18.5202C20.5301 18.4759 20.474 18.4189 20.4308 18.3525C20.3876 18.2862 20.3582 18.2118 20.3443 18.1338C20.3304 18.0559 20.3323 17.9759 20.3499 17.8987C20.3675 17.8215 20.4004 17.7486 20.4467 17.6843C20.4929 17.6201 20.5517 17.5658 20.6193 17.5246C20.687 17.4835 20.7623 17.4564 20.8406 17.4449L31.4447 15.5525V10.1519H6.68286V15.5513L17.3106 17.449C17.4565 17.4746 17.5875 17.5539 17.6777 17.6714C17.7679 17.7889 17.8107 17.9359 17.7977 18.0835C17.7847 18.231 17.7168 18.3683 17.6074 18.4682C17.4981 18.5681 17.3552 18.6233 17.2071 18.6229V18.6205Z" fill="#CED0D0"/>
<path d="M22.4341 10.1518H15.6923C15.5355 10.1518 15.385 10.0895 15.2741 9.97863C15.1632 9.86772 15.1009 9.7173 15.1009 9.56046V6.90987C15.1009 6.59618 15.2256 6.29534 15.4474 6.07353C15.6692 5.85172 15.97 5.7271 16.2837 5.7271H21.8427C22.1564 5.7271 22.4572 5.85172 22.6791 6.07353C22.9009 6.29534 23.0255 6.59618 23.0255 6.90987V9.56046C23.0255 9.7173 22.9632 9.86772 22.8523 9.97863C22.7414 10.0895 22.5909 10.1518 22.4341 10.1518V10.1518ZM16.2837 8.96907H21.8427V6.90987H16.2837V8.96907Z" fill="#CED0D0"/>
<path d="M19.0628 20.8045C18.5793 20.8046 18.1065 20.6614 17.7044 20.3928C17.3022 20.1242 16.9888 19.7424 16.8037 19.2956C16.6185 18.8489 16.5701 18.3572 16.6644 17.883C16.7587 17.4087 16.9916 16.973 17.3335 16.631C17.6754 16.2891 18.1111 16.0562 18.5854 15.9619C19.0597 15.8676 19.5513 15.9161 19.9981 16.1012C20.4448 16.2863 20.8267 16.5997 21.0953 17.0019C21.3638 17.404 21.5071 17.8768 21.507 18.3603C21.5064 19.0084 21.2487 19.6297 20.7904 20.088C20.3322 20.5462 19.7109 20.8039 19.0628 20.8045V20.8045ZM19.0628 17.0983C18.8132 17.0982 18.5691 17.1721 18.3615 17.3107C18.1539 17.4493 17.9921 17.6464 17.8965 17.877C17.8009 18.1076 17.7758 18.3613 17.8244 18.6062C17.873 18.851 17.9932 19.076 18.1696 19.2525C18.3461 19.4291 18.571 19.5493 18.8158 19.5981C19.0606 19.6468 19.3144 19.6219 19.545 19.5264C19.7757 19.4309 19.9728 19.2691 20.1115 19.0615C20.2502 18.854 20.3242 18.61 20.3242 18.3603C20.3238 18.0259 20.1907 17.7052 19.9543 17.4687C19.7179 17.2321 19.3973 17.099 19.0628 17.0983V17.0983Z" fill="#CED0D0"/>
</svg>
