<svg width="37" height="36" viewBox="0 0 37 36" fill="none" xmlns="http://www.w3.org/2000/svg">
<path d="M29.8409 31.9634C29.7322 31.9634 29.6279 31.9202 29.5511 31.8433C29.4742 31.7664 29.431 31.6622 29.431 31.5535V26.6351C29.431 26.5264 29.4742 26.4221 29.5511 26.3453C29.6279 26.2684 29.7322 26.2252 29.8409 26.2252C29.9496 26.2252 30.0538 26.2684 30.1307 26.3453C30.2076 26.4221 30.2507 26.5264 30.2507 26.6351V31.5535C30.2507 31.6622 30.2076 31.7664 30.1307 31.8433C30.0538 31.9202 29.9496 31.9634 29.8409 31.9634V31.9634Z" fill="#CED0D0"/>
<path d="M31.0709 27.0452H22.8735C22.8163 27.0452 22.7596 27.0331 22.7073 27.0099C22.6549 26.9867 22.608 26.9527 22.5696 26.9102C22.5312 26.8678 22.5021 26.8177 22.4842 26.7633C22.4663 26.7088 22.46 26.6513 22.4657 26.5943L23.2424 18.4338C23.1378 18.4233 23.0412 18.373 22.9726 18.2933C22.9041 18.2136 22.8687 18.1105 22.874 18.0055C22.8793 17.9005 22.9247 17.8015 23.0009 17.729C23.0771 17.6565 23.1783 17.6161 23.2834 17.6162H23.6933C23.7505 17.6159 23.8072 17.6276 23.8597 17.6506C23.9121 17.6736 23.9592 17.7073 23.9978 17.7496C24.0364 17.7919 24.0657 17.8418 24.0839 17.8961C24.102 17.9504 24.1086 18.008 24.1031 18.065L23.3244 26.2234H30.62L29.8433 18.065C29.8379 18.0081 29.8444 17.9508 29.8625 17.8966C29.8805 17.8424 29.9096 17.7926 29.948 17.7504C29.9864 17.7081 30.0332 17.6744 30.0854 17.6512C30.1376 17.6281 30.1941 17.6162 30.2512 17.6162H30.661C30.7662 17.6161 30.8673 17.6565 30.9435 17.729C31.0197 17.8015 31.0652 17.9005 31.0704 18.0055C31.0757 18.1105 31.0404 18.2136 30.9718 18.2933C30.9033 18.373 30.8066 18.4233 30.702 18.4338L31.4808 26.5943C31.4865 26.6515 31.4802 26.7092 31.4622 26.7638C31.4442 26.8183 31.4149 26.8685 31.3762 26.911C31.3376 26.9535 31.2904 26.9874 31.2378 27.0105C31.1852 27.0336 31.1283 27.0454 31.0709 27.0452V27.0452Z" fill="#CED0D0"/>
<path d="M26.9717 31.9634C26.863 31.9634 26.7587 31.9202 26.6819 31.8433C26.605 31.7664 26.5618 31.6622 26.5618 31.5535V26.6351C26.5618 26.5264 26.605 26.4221 26.6819 26.3453C26.7587 26.2684 26.863 26.2252 26.9717 26.2252C27.0804 26.2252 27.1846 26.2684 27.2615 26.3453C27.3384 26.4221 27.3815 26.5264 27.3815 26.6351V31.5535C27.3815 31.6622 27.3384 31.7664 27.2615 31.8433C27.1846 31.9202 27.0804 31.9634 26.9717 31.9634V31.9634Z" fill="#CED0D0"/>
<path d="M24.1032 31.9634C23.9945 31.9634 23.8903 31.9202 23.8134 31.8433C23.7366 31.7664 23.6934 31.6622 23.6934 31.5535V26.6351C23.6934 26.5264 23.7366 26.4221 23.8134 26.3453C23.8903 26.2684 23.9945 26.2252 24.1032 26.2252C24.2119 26.2252 24.3162 26.2684 24.3931 26.3453C24.4699 26.4221 24.5131 26.5264 24.5131 26.6351V31.5535C24.5131 31.6622 24.4699 31.7664 24.3931 31.8433C24.3162 31.9202 24.2119 31.9634 24.1032 31.9634V31.9634Z" fill="#CED0D0"/>
<path d="M22.0536 24.1763H21.2339C21.177 24.1765 21.1207 24.1649 21.0686 24.1422C21.0165 24.1195 20.9697 24.0862 20.9312 24.0444C20.8926 24.0026 20.8632 23.9532 20.8447 23.8995C20.8263 23.8457 20.8192 23.7887 20.824 23.732L21.4138 16.7553C21.9257 13.8214 23.7041 12.2902 26.5605 12.2902H27.3802C28.5975 12.2902 29.6271 12.5681 30.4407 13.1165C30.4871 13.1458 30.527 13.1841 30.5583 13.2291C30.5896 13.2741 30.6115 13.325 30.6228 13.3786C30.634 13.4323 30.6344 13.4876 30.6239 13.5415C30.6134 13.5953 30.5922 13.6464 30.5616 13.6919C30.5309 13.7373 30.4915 13.7762 30.4456 13.8062C30.3996 13.8361 30.3482 13.8565 30.2942 13.8663C30.2403 13.876 30.1849 13.8748 30.1314 13.8627C30.078 13.8506 30.0274 13.828 29.9829 13.796C29.307 13.3407 28.4315 13.1099 27.3802 13.1099H26.5605C24.0857 13.1099 22.6668 14.3366 22.2257 16.8602L21.6782 23.3566H22.0519C22.1607 23.3566 22.2649 23.3998 22.3418 23.4766C22.4186 23.5535 22.4618 23.6578 22.4618 23.7665C22.4618 23.8752 22.4186 23.9794 22.3418 24.0563C22.2649 24.1331 22.1607 24.1763 22.0519 24.1763H22.0536Z" fill="#CED0D0"/>
<path d="M32.7102 24.1764H31.8905C31.7818 24.1764 31.6775 24.1332 31.6006 24.0563C31.5238 23.9795 31.4806 23.8752 31.4806 23.7665C31.4806 23.6578 31.5238 23.5536 31.6006 23.4767C31.6775 23.3998 31.7818 23.3566 31.8905 23.3566H32.2643L31.7134 16.8242C31.6475 16.452 31.5499 16.0862 31.4216 15.7306C31.4031 15.6801 31.3947 15.6264 31.3969 15.5726C31.3992 15.5187 31.412 15.4659 31.4347 15.4171C31.4573 15.3682 31.4894 15.3243 31.529 15.2878C31.5687 15.2514 31.6151 15.2231 31.6656 15.2046C31.7162 15.1861 31.7699 15.1777 31.8238 15.1799C31.8776 15.1822 31.9304 15.195 31.9792 15.2177C32.0281 15.2403 32.072 15.2724 32.1084 15.312C32.1449 15.3517 32.1732 15.3981 32.1917 15.4487C32.3403 15.8615 32.452 16.2867 32.5257 16.7192L33.1201 23.7321C33.1248 23.7887 33.1178 23.8457 33.0993 23.8995C33.0809 23.9533 33.0515 24.0026 33.0129 24.0444C32.9744 24.0862 32.9275 24.1195 32.8754 24.1422C32.8233 24.1649 32.767 24.1766 32.7102 24.1764V24.1764Z" fill="#CED0D0"/>
<path d="M14.0549 31.9635C13.9462 31.9635 13.842 31.9203 13.7651 31.8434C13.6882 31.7666 13.6451 31.6623 13.6451 31.5536V27.455C13.6451 27.3463 13.6882 27.242 13.7651 27.1651C13.842 27.0883 13.9462 27.0451 14.0549 27.0451C14.1636 27.0451 14.2679 27.0883 14.3447 27.1651C14.4216 27.242 14.4648 27.3463 14.4648 27.455V31.5536C14.4648 31.6623 14.4216 31.7666 14.3447 31.8434C14.2679 31.9203 14.1636 31.9635 14.0549 31.9635V31.9635Z" fill="#CED0D0"/>
<path d="M21.4321 31.9635C21.3234 31.9635 21.2192 31.9203 21.1423 31.8435C21.0655 31.7666 21.0223 31.6624 21.0223 31.5537V25.8155C21.0223 25.7068 21.0655 25.6026 21.1423 25.5257C21.2192 25.4488 21.3234 25.4057 21.4321 25.4057C21.5408 25.4057 21.6451 25.4488 21.722 25.5257C21.7988 25.6026 21.842 25.7068 21.842 25.8155V31.5537C21.842 31.6624 21.7988 31.7666 21.722 31.8435C21.6451 31.9203 21.5408 31.9635 21.4321 31.9635V31.9635Z" fill="#CED0D0"/>
<path d="M17.7431 31.9634C17.6344 31.9634 17.5302 31.9202 17.4533 31.8434C17.3765 31.7665 17.3333 31.6623 17.3333 31.5536V23.3562C17.3333 23.2475 17.3765 23.1433 17.4533 23.0664C17.5302 22.9895 17.6344 22.9463 17.7431 22.9463C17.8519 22.9463 17.9561 22.9895 18.033 23.0664C18.1098 23.1433 18.153 23.2475 18.153 23.3562V31.5536C18.153 31.6623 18.1098 31.7665 18.033 31.8434C17.9561 31.9202 17.8519 31.9634 17.7431 31.9634V31.9634Z" fill="#CED0D0"/>
<path d="M22.6701 12.9361C22.6116 12.9361 22.5539 12.9236 22.5006 12.8994C22.4474 12.8753 22.3999 12.84 22.3615 12.796C21.6036 11.9287 20.5736 11.4705 19.383 11.4705H15.2843C13.6129 11.4705 13.1325 11.7061 12.5382 12.0939C12.4473 12.1536 12.3363 12.1749 12.2297 12.1528C12.1232 12.1308 12.0297 12.0674 11.9699 11.9764C11.9101 11.8855 11.8889 11.7745 11.9109 11.668C11.9329 11.5614 11.9964 11.4679 12.0873 11.4082C12.8874 10.8843 13.5387 10.6507 15.281 10.6507H19.3797C20.7933 10.6507 22.0701 11.2212 22.975 12.2566C23.0268 12.3158 23.0604 12.3887 23.0719 12.4666C23.0834 12.5444 23.0722 12.6239 23.0397 12.6956C23.0072 12.7672 22.9547 12.828 22.8886 12.8707C22.8225 12.9133 22.7455 12.9361 22.6668 12.9361H22.6701Z" fill="#CED0D0"/>
<path d="M17.743 9.83062C16.0269 9.83062 14.8739 8.5129 14.8739 6.55169C14.8739 4.59047 16.0269 3.27275 17.743 3.27275C19.4591 3.27275 20.6121 4.59047 20.6121 6.55169C20.6121 8.5129 19.4579 9.83062 17.743 9.83062ZM17.743 4.09248C16.2306 4.09248 15.6937 5.41717 15.6937 6.55169C15.6937 7.6862 16.2306 9.01089 17.743 9.01089C19.2554 9.01089 19.7923 7.6862 19.7923 6.55169C19.7923 5.41717 19.2554 4.09248 17.743 4.09248Z" fill="#CED0D0"/>
<path d="M14.0006 26.4806H13.6579C13.5553 26.4803 13.4564 26.4415 13.381 26.3718C13.3056 26.3022 13.259 26.2068 13.2506 26.1045C13.2421 26.0021 13.2724 25.9004 13.3354 25.8193C13.3983 25.7382 13.4895 25.6837 13.5907 25.6666V19.4559C13.5907 17.8496 12.257 16.543 10.6179 16.543H8.47351C8.32813 16.546 8.18306 16.5577 8.03905 16.5778L7.93084 16.5905C7.82222 16.6024 7.68002 16.6278 7.62017 16.679C7.55818 16.7302 7.48612 16.7677 7.40868 16.7893C7.31449 16.8093 7.21624 16.7956 7.13118 16.7504C7.04611 16.7053 6.97966 16.6317 6.94347 16.5424C6.90729 16.4532 6.90368 16.354 6.93329 16.2624C6.96289 16.1708 7.02382 16.0925 7.10538 16.0413C7.23285 15.9372 7.4308 15.8216 7.83944 15.7757L7.94272 15.7638C8.11868 15.7396 8.29593 15.7259 8.47351 15.7228H10.6179C12.7083 15.7228 14.4104 17.3975 14.4104 19.4555V26.0703C14.4105 26.1242 14.3999 26.1775 14.3794 26.2273C14.3588 26.2771 14.3286 26.3223 14.2905 26.3604C14.2525 26.3985 14.2073 26.4287 14.1575 26.4493C14.1078 26.47 14.0544 26.4806 14.0006 26.4806V26.4806Z" fill="#CED0D0"/>
<path d="M5.43353 26.4809H5.09088C4.98218 26.4809 4.87792 26.4378 4.80105 26.3609C4.72419 26.284 4.68102 26.1798 4.68102 26.0711V19.8288C4.68066 19.3029 4.78356 18.7821 4.98389 18.2959C5.02531 18.1953 5.10497 18.1154 5.20536 18.0735C5.30574 18.0317 5.41863 18.0315 5.51918 18.0729C5.61973 18.1143 5.69971 18.194 5.74153 18.2944C5.78334 18.3948 5.78356 18.5077 5.74215 18.6082C5.5823 18.9953 5.50028 19.41 5.50075 19.8288V25.6669C5.60199 25.6841 5.69309 25.7385 5.75608 25.8196C5.81906 25.9007 5.84934 26.0025 5.84089 26.1048C5.83244 26.2071 5.78588 26.3026 5.71045 26.3722C5.63501 26.4419 5.5362 26.4807 5.43353 26.4809V26.4809Z" fill="#CED0D0"/>
<path d="M6.80511 31.9638C6.69641 31.9638 6.59217 31.9206 6.5153 31.8437C6.43844 31.7669 6.39524 31.6626 6.39524 31.5539V20.9924C6.29401 20.9753 6.2029 20.9208 6.13992 20.8398C6.07693 20.7587 6.04665 20.6569 6.0551 20.5546C6.06355 20.4523 6.11011 20.3568 6.18555 20.2872C6.26098 20.2175 6.3598 20.1787 6.46247 20.1785H6.80511C6.91381 20.1785 7.01807 20.2216 7.09494 20.2985C7.1718 20.3754 7.21498 20.4796 7.21498 20.5883V31.5539C7.21498 31.6077 7.20437 31.661 7.18378 31.7108C7.16318 31.7605 7.133 31.8057 7.09494 31.8437C7.05688 31.8818 7.0117 31.912 6.96197 31.9326C6.91225 31.9532 6.85893 31.9638 6.80511 31.9638V31.9638Z" fill="#CED0D0"/>
<path d="M9.54614 31.9635C9.43744 31.9635 9.33318 31.9203 9.25631 31.8434C9.17945 31.7665 9.13628 31.6623 9.13628 31.5536V25.3851C9.13628 25.2764 9.17945 25.1721 9.25631 25.0953C9.33318 25.0184 9.43744 24.9752 9.54614 24.9752C9.65485 24.9752 9.75909 25.0184 9.83595 25.0953C9.91282 25.1721 9.95601 25.2764 9.95601 25.3851V31.5536C9.95601 31.6623 9.91282 31.7665 9.83595 31.8434C9.75909 31.9203 9.65485 31.9635 9.54614 31.9635V31.9635Z" fill="#CED0D0"/>
<path d="M9.54593 15.1721C8.27535 15.1721 7.42241 14.1811 7.42241 12.7064C7.42241 11.2317 8.27575 10.2406 9.54593 10.2406C10.8161 10.2406 11.6707 11.2309 11.6707 12.7064C11.6707 14.1819 10.8161 15.1721 9.54593 15.1721ZM9.54593 11.0604C8.33642 11.0604 8.24214 12.3199 8.24214 12.7064C8.24214 13.5019 8.58479 14.3524 9.54593 14.3524C10.5071 14.3524 10.8509 13.5019 10.8509 12.7064C10.8509 12.3199 10.7555 11.0604 9.54593 11.0604V11.0604Z" fill="#CED0D0"/>
<path d="M12.2859 31.9638C12.1772 31.9638 12.073 31.9207 11.9961 31.8438C11.9192 31.7669 11.8761 31.6627 11.8761 31.554V20.588C11.8761 20.4793 11.9192 20.375 11.9961 20.2982C12.073 20.2213 12.1772 20.1781 12.2859 20.1781H12.6286C12.7313 20.1784 12.8301 20.2172 12.9055 20.2868C12.981 20.3565 13.0275 20.4519 13.0359 20.5542C13.0444 20.6566 13.0141 20.7583 12.9511 20.8394C12.8882 20.9205 12.797 20.975 12.6958 20.9921V31.554C12.6958 31.6627 12.6526 31.7669 12.5758 31.8438C12.4989 31.9207 12.3946 31.9638 12.2859 31.9638V31.9638Z" fill="#CED0D0"/>
<path d="M5.79575 18.818C5.63063 18.8184 5.4674 18.7828 5.31742 18.7137C5.16744 18.6446 5.0343 18.5437 4.92725 18.418L4.54566 17.9708C4.34984 17.7405 4.25327 17.442 4.27708 17.1406C4.3009 16.8393 4.44314 16.5596 4.6727 16.3629L5.4322 15.7149C5.66256 15.5191 5.96111 15.4226 6.26248 15.4465C6.56384 15.4704 6.84346 15.6128 7.0401 15.8424L7.42127 16.2904C7.61719 16.5206 7.71384 16.8192 7.69003 17.1206C7.66621 17.422 7.52388 17.7016 7.29423 17.8983L6.53473 18.5459C6.32871 18.7217 6.06664 18.8183 5.79575 18.818V18.818ZM5.9646 16.3387L5.20513 16.9863C5.141 17.0416 5.10125 17.1199 5.0945 17.2043C5.08774 17.2887 5.11455 17.3724 5.16906 17.4372L5.55105 17.8843C5.60622 17.9487 5.68459 17.9885 5.76906 17.9953C5.85352 18.002 5.93722 17.9751 6.00191 17.9204L6.76098 17.2728C6.82511 17.2175 6.86486 17.1392 6.87161 17.0548C6.87837 16.9704 6.85156 16.8867 6.79705 16.822L6.41546 16.3744C6.36005 16.3104 6.28172 16.2708 6.19735 16.2641C6.11299 16.2575 6.02937 16.2843 5.9646 16.3387V16.3387Z" fill="#CED0D0"/>
<path d="M31.386 16.0062C31.1153 16.0064 30.8536 15.9095 30.6482 15.7332L29.8891 15.0856C29.6594 14.8892 29.5169 14.6096 29.4929 14.3083C29.469 14.007 29.5655 13.7084 29.7613 13.4781L30.1433 13.0305C30.3395 12.8005 30.6191 12.6578 30.9205 12.6338C31.222 12.6099 31.5206 12.7066 31.7508 12.9027V12.9027L32.5098 13.5507C32.7399 13.747 32.8826 14.0267 32.9065 14.3282C32.9304 14.6298 32.8336 14.9284 32.6373 15.1586L32.2557 15.6057C32.1587 15.7202 32.0399 15.8143 31.9062 15.8825C31.7725 15.9507 31.6266 15.9916 31.477 16.0029C31.4467 16.005 31.4155 16.0062 31.386 16.0062ZM31.0105 13.4498C30.9639 13.4496 30.9177 13.4596 30.8752 13.479C30.8328 13.4983 30.795 13.5267 30.7646 13.5621L30.3826 14.0101C30.328 14.0749 30.3011 14.1585 30.3079 14.243C30.3147 14.3274 30.3545 14.4058 30.4187 14.461L31.1782 15.1086C31.21 15.1362 31.2472 15.1572 31.2873 15.1701C31.3274 15.1831 31.3698 15.1878 31.4118 15.184C31.4537 15.1808 31.4946 15.1693 31.5321 15.1503C31.5696 15.1312 31.603 15.1049 31.6303 15.0729L32.0119 14.6253C32.0664 14.5606 32.0933 14.477 32.0866 14.3926C32.0799 14.3082 32.0403 14.2298 31.9762 14.1745L31.2175 13.5261C31.1595 13.4768 31.0858 13.4498 31.0097 13.4498H31.0105Z" fill="#CED0D0"/>
<path d="M27.1773 11.47C25.6083 11.47 24.5131 10.2059 24.5131 8.39595C24.5131 6.58598 25.6083 5.32195 27.1773 5.32195C27.286 5.32195 27.3902 5.36513 27.4671 5.442C27.544 5.51886 27.5871 5.62311 27.5871 5.73182C27.5871 5.84052 27.544 5.94477 27.4671 6.02164C27.3902 6.0985 27.286 6.14168 27.1773 6.14168C25.8157 6.14168 25.3329 7.35612 25.3329 8.39595C25.3329 9.43579 25.8157 10.6502 27.1773 10.6502C28.5389 10.6502 29.0217 9.43579 29.0217 8.39595C29.0265 8.02019 28.9606 7.64687 28.8274 7.29546C28.7895 7.1947 28.7927 7.08305 28.8364 6.98465C28.8801 6.88626 28.9608 6.80901 29.061 6.7696C29.1612 6.73019 29.2728 6.73179 29.3718 6.77405C29.4709 6.8163 29.5493 6.89582 29.5902 6.99543C29.7613 7.44231 29.8465 7.91747 29.8414 8.39595C29.8414 10.2059 28.7458 11.47 27.1773 11.47Z" fill="#CED0D0"/>
<path d="M29.206 7.55046C28.1325 7.55046 27.1415 6.85819 26.7955 5.86672C26.7778 5.81588 26.7703 5.76206 26.7734 5.70832C26.7765 5.65457 26.7902 5.60197 26.8136 5.5535C26.837 5.50503 26.8698 5.46165 26.9099 5.42583C26.9501 5.39002 26.997 5.36247 27.0478 5.34476C27.0987 5.32705 27.1525 5.31953 27.2062 5.32263C27.26 5.32572 27.3126 5.33937 27.3611 5.36279C27.4095 5.38622 27.4529 5.41896 27.4887 5.45916C27.5245 5.49935 27.5521 5.5462 27.5698 5.59704C27.7989 6.25282 28.4871 6.73072 29.206 6.73072C29.3147 6.73072 29.4189 6.77391 29.4958 6.85077C29.5727 6.92764 29.6158 7.03189 29.6158 7.14059C29.6158 7.2493 29.5727 7.35355 29.4958 7.43041C29.4189 7.50728 29.3147 7.55046 29.206 7.55046Z" fill="#CED0D0"/>
<path d="M30.1362 11.2625C30.0313 11.2626 29.9304 11.2226 29.8541 11.1506C29.7779 11.0786 29.7321 10.9801 29.7263 10.8754C29.7205 10.7707 29.755 10.6677 29.8228 10.5877C29.8906 10.5077 29.9865 10.4567 30.0907 10.4452C30.1855 10.4351 30.2787 10.4279 30.3703 10.4235C30.435 10.4216 30.4985 10.4056 30.5565 10.3765C30.6144 10.3475 30.6652 10.3062 30.7055 10.2554C30.7399 10.2126 30.7645 10.1627 30.7774 10.1093C30.7904 10.0559 30.7915 10.0003 30.7805 9.94639C30.6465 9.28609 30.6428 8.51432 30.6399 7.95075C30.6399 7.80074 30.6399 7.66385 30.6354 7.54416C30.5899 5.72149 29.7071 4.74805 28.0123 4.65091L26.9056 4.63902H26.8774C25.7006 4.63902 23.8349 5.42228 23.7624 7.54908L23.7542 7.84541C23.741 8.40857 23.7226 9.17953 23.5865 9.8677C23.5735 9.92977 23.5745 9.99396 23.5893 10.0556C23.6041 10.1173 23.6324 10.1749 23.6722 10.2243C23.7066 10.2673 23.7503 10.3022 23.7999 10.3261C23.8496 10.3501 23.904 10.3626 23.9591 10.3628C24.1041 10.363 24.2491 10.3713 24.3932 10.3878C24.5012 10.4003 24.5998 10.4551 24.6673 10.5403C24.7349 10.6254 24.7659 10.734 24.7534 10.842C24.741 10.95 24.6861 11.0486 24.601 11.1161C24.5158 11.1837 24.4073 11.2147 24.2993 11.2022C24.1852 11.1895 24.0706 11.1829 23.9558 11.1826C23.7796 11.182 23.6057 11.1424 23.4467 11.0664C23.2877 10.9904 23.1476 10.88 23.0365 10.7432C22.9199 10.6004 22.8365 10.4334 22.7924 10.2545C22.7482 10.0755 22.7444 9.88891 22.7811 9.70826C22.9041 9.08937 22.9209 8.35898 22.9336 7.82574L22.9422 7.5208C23.0345 4.81773 25.3916 3.82052 26.877 3.82052H26.9089L28.0369 3.83323C29.2915 3.90454 31.3756 4.47795 31.4519 7.52449C31.4552 7.64745 31.4556 7.79172 31.4564 7.94788C31.4593 8.50735 31.4625 9.20289 31.5794 9.7849C31.6136 9.95513 31.6104 10.1308 31.57 10.2997C31.5296 10.4685 31.4529 10.6266 31.3453 10.7629C31.232 10.9068 31.0888 11.0244 30.9255 11.1074C30.7622 11.1904 30.5828 11.2369 30.3998 11.2436C30.328 11.2469 30.253 11.2526 30.178 11.2612C30.1641 11.2623 30.1501 11.2627 30.1362 11.2625V11.2625Z" fill="#CED0D0"/>
</svg>
