<svg width="38" height="36" viewBox="0 0 38 36" fill="none" xmlns="http://www.w3.org/2000/svg">
<g clip-path="url(#clip0_1_9)">
<path d="M20.5679 27.2023C20.5397 27.2023 20.5117 27.1996 20.484 27.1944C20.3834 27.1749 20.2927 27.121 20.2275 27.042C20.1623 26.963 20.1266 26.8638 20.1265 26.7614V9.94126C20.1264 9.88471 20.1372 9.82867 20.1583 9.77619C20.4368 9.08194 23.0659 3.04594 29.9564 3.3827C30.0697 3.38814 30.1767 3.43704 30.2549 3.51922C30.3331 3.60141 30.3767 3.71058 30.3766 3.82405V20.5378C30.3766 20.5976 30.3646 20.6568 30.341 20.7119C30.3175 20.7669 30.2831 20.8165 30.2398 20.8578C30.1965 20.8991 30.1452 20.9311 30.0892 20.952C30.0331 20.9728 29.9734 20.9821 29.9136 20.9792C23.5978 20.6654 21.0794 26.6727 20.9761 26.9291C20.9428 27.01 20.8862 27.0791 20.8135 27.1277C20.7408 27.1764 20.6553 27.2023 20.5679 27.2023V27.2023ZM21.0092 10.0282V25.0396C22.2547 23.1127 24.9329 20.0841 29.455 20.0841H29.4952V4.25173C23.7196 4.19259 21.3747 9.15741 21.0092 10.0282Z" fill="#CED0D0"/>
<path d="M20.5679 27.2022C20.4832 27.2022 20.4003 27.1779 20.329 27.132C20.2578 27.0862 20.2012 27.0208 20.1662 26.9437C20.1311 26.8665 20.1189 26.781 20.1311 26.6971C20.1434 26.6133 20.1795 26.5348 20.2351 26.4709C20.2793 26.4184 24.7926 21.3613 31.8371 22.771V6.85213C31.2042 6.71514 30.5612 6.62939 29.9145 6.5957C29.8566 6.59282 29.7999 6.57855 29.7475 6.55372C29.6951 6.52889 29.6481 6.49398 29.6092 6.45099C29.5703 6.40799 29.5402 6.35775 29.5208 6.30314C29.5013 6.24853 29.4928 6.19062 29.4957 6.13272C29.5043 6.01691 29.5571 5.90884 29.6432 5.83094C29.7293 5.75303 29.8421 5.71127 29.9582 5.71431C30.7768 5.75693 31.5896 5.87663 32.3857 6.07181C32.4817 6.09533 32.567 6.1504 32.628 6.22818C32.689 6.30597 32.7221 6.40197 32.722 6.50081V23.3209C32.722 23.3878 32.7069 23.4538 32.6777 23.514C32.6484 23.5741 32.6059 23.6269 32.5534 23.6682C32.5008 23.7095 32.4395 23.7383 32.3741 23.7525C32.3088 23.7667 32.241 23.7658 32.176 23.7499C25.3535 22.0856 20.9457 27.0018 20.9025 27.0517C20.8608 27.0993 20.8093 27.1374 20.7516 27.1634C20.6939 27.1893 20.6312 27.2026 20.5679 27.2022V27.2022Z" fill="#CED0D0"/>
<path d="M20.5677 27.2025C20.4643 27.2026 20.3642 27.1663 20.2848 27.1001C20.2746 27.0917 18.9744 26.0612 15.4383 25.4049C15.3231 25.3835 15.2212 25.3173 15.1549 25.2208C15.0886 25.1243 15.0634 25.0054 15.0847 24.8903C15.1061 24.7751 15.1723 24.6732 15.2688 24.6069C15.3653 24.5406 15.4842 24.5154 15.5994 24.5367C17.9341 24.9701 19.3606 25.5647 20.1264 25.9694V10.2059C19.4427 9.7676 16.4574 8.16194 9.299 8.07897V18.9492C9.299 19.0662 9.25248 19.1785 9.16971 19.2612C9.08694 19.344 8.97469 19.3905 8.85764 19.3905C8.74058 19.3905 8.62831 19.344 8.54554 19.2612C8.46277 19.1785 8.41628 19.0662 8.41628 18.9492V7.63452C8.41628 7.51747 8.46277 7.40521 8.54554 7.32244C8.62831 7.23967 8.74058 7.19317 8.85764 7.19317C17.8423 7.21788 20.7301 9.53854 20.8493 9.6374C20.899 9.67889 20.9389 9.73081 20.9663 9.78946C20.9937 9.84811 21.0078 9.91207 21.0077 9.9768V26.7612C21.0077 26.8782 20.9612 26.9905 20.8785 27.0733C20.7957 27.156 20.6834 27.2025 20.5664 27.2025H20.5677Z" fill="#CED0D0"/>
<path d="M34.6211 27.2024H14.6321C14.515 27.2024 14.4027 27.1559 14.32 27.0732C14.2372 26.9904 14.1907 26.8781 14.1907 26.7611C14.1907 26.644 14.2372 26.5318 14.32 26.449C14.4027 26.3662 14.515 26.3197 14.6321 26.3197H34.1798V10.4181H32.5675C32.4504 10.4181 32.3382 10.3716 32.2554 10.2888C32.1726 10.206 32.1261 10.0938 32.1261 9.97671C32.1261 9.85965 32.1726 9.74739 32.2554 9.66462C32.3382 9.58185 32.4504 9.53535 32.5675 9.53535H34.6211C34.7382 9.53535 34.8504 9.58185 34.9332 9.66462C35.016 9.74739 35.0625 9.85965 35.0625 9.97671V26.7611C35.0625 26.8781 35.016 26.9904 34.9332 27.0732C34.8504 27.1559 34.7382 27.2024 34.6211 27.2024V27.2024Z" fill="#CED0D0"/>
<path d="M6.51575 20.1345C6.3987 20.1345 6.28645 20.088 6.20368 20.0053C6.12091 19.9225 6.07439 19.8102 6.07439 19.6932V9.97671C6.07439 9.85965 6.12091 9.74739 6.20368 9.66462C6.28645 9.58185 6.3987 9.53535 6.51575 9.53535H8.56983C8.68688 9.53535 8.79915 9.58185 8.88192 9.66462C8.9647 9.74739 9.01119 9.85965 9.01119 9.97671C9.01119 10.0938 8.9647 10.206 8.88192 10.2888C8.79915 10.3716 8.68688 10.4181 8.56983 10.4181H6.95711V19.6932C6.95711 19.8102 6.91062 19.9225 6.82785 20.0053C6.74508 20.088 6.63281 20.1345 6.51575 20.1345Z" fill="#CED0D0"/>
<path d="M10.1934 32.3454C10.1294 32.3455 10.0661 32.3316 10.0079 32.3048C9.94976 32.2779 9.89814 32.2387 9.85665 32.1899C9.81516 32.1411 9.78477 32.0839 9.76763 32.0222C9.75048 31.9605 9.74699 31.8958 9.75737 31.8326L9.86859 31.1533C9.88168 31.0734 9.91647 30.9987 9.96917 30.9373C10.0219 30.8759 10.0904 30.8301 10.1674 30.8051C11.0333 30.5222 11.5528 29.9965 12.2656 29.0635L14.678 25.6518C14.9384 25.2338 15.2174 24.6128 14.987 24.1472C14.8427 23.8528 14.5249 23.6617 14.2239 23.5545L13.9856 25.0304C13.9665 25.1454 13.9027 25.2482 13.8081 25.3163C13.7135 25.3844 13.5958 25.4124 13.4806 25.394C13.3655 25.3757 13.2623 25.3125 13.1936 25.2183C13.1249 25.1241 13.0962 25.0066 13.1139 24.8913L13.4202 22.9494C13.424 22.9224 13.4307 22.8959 13.44 22.8704L14.4808 16.4226C14.4917 16.3766 14.4929 16.3289 14.4843 16.2825C14.4758 16.236 14.4575 16.1919 14.4309 16.1529C14.3404 16.0249 14.1449 15.9322 13.8814 15.8881C13.5654 15.8378 13.2326 16.013 13.1907 16.25L12.0264 22.8915C12.0164 22.9487 11.9952 23.0033 11.9641 23.0522C11.933 23.1011 11.8926 23.1435 11.8451 23.1768C11.7977 23.2101 11.7441 23.2338 11.6875 23.2464C11.6309 23.259 11.5724 23.2604 11.5153 23.2504C11.4582 23.2404 11.4036 23.2192 11.3546 23.1881C11.3057 23.157 11.2633 23.1166 11.23 23.0691C11.1967 23.0217 11.1731 22.9681 11.1604 22.9115C11.1478 22.8549 11.1465 22.7964 11.1565 22.7393L11.6419 19.9517C11.6537 19.8972 11.6544 19.841 11.6441 19.7863C11.6338 19.7316 11.6127 19.6794 11.5819 19.633C11.5065 19.528 11.371 19.4565 11.1896 19.4295C10.6467 19.3444 10.5717 19.5266 10.5275 19.7914L10.0795 22.5389C10.059 22.6524 9.99482 22.7533 9.90079 22.8201C9.80675 22.8869 9.69031 22.9142 9.57639 22.8962C9.46247 22.8782 9.36012 22.8163 9.29125 22.7238C9.22237 22.6313 9.19244 22.5155 9.20787 22.4012L9.54199 20.2107C9.58083 19.9901 9.28776 19.6899 8.8389 19.6109C8.40019 19.5324 8.00517 19.8678 7.96015 20.1211L7.89041 20.6327C7.88732 20.6675 7.88249 20.7028 7.87587 20.7382L7.68564 22.1289C7.67779 22.1863 7.65869 22.2416 7.62946 22.2917C7.60022 22.3418 7.56141 22.3856 7.51524 22.4206C7.46907 22.4557 7.41645 22.4813 7.36038 22.496C7.30431 22.5108 7.24588 22.5143 7.18845 22.5065C7.13101 22.4986 7.07567 22.4795 7.02561 22.4503C6.97555 22.421 6.93173 22.3822 6.89667 22.3361C6.86161 22.2899 6.83599 22.2373 6.82127 22.1812C6.80654 22.1251 6.803 22.0667 6.81086 22.0093L7.01035 20.5528C7.01947 20.4896 7.00364 20.4253 6.96622 20.3736C6.92907 20.331 6.88385 20.2963 6.83316 20.2714C6.78247 20.2464 6.72733 20.2318 6.67095 20.2284C6.43438 20.2041 6.16648 20.2787 6.12852 20.5638L5.0706 26.9375C4.92848 27.8078 5.54284 28.736 6.03671 29.4814C6.09805 29.5743 6.12231 29.6867 6.10469 29.7966L5.87519 31.1966C5.85629 31.3121 5.79222 31.4155 5.69712 31.4839C5.60202 31.5522 5.48366 31.58 5.36806 31.5611C5.25247 31.5422 5.14912 31.4782 5.08075 31.3831C5.01238 31.288 4.98461 31.1696 5.00351 31.054L5.20521 29.8244C4.66984 29.0114 4.01354 27.9376 4.19935 26.7936L5.25419 20.4314C5.34864 19.7283 5.98376 19.2667 6.76099 19.3492C6.94112 19.3676 7.11593 19.421 7.27562 19.5063C7.45488 19.2246 7.71306 19.0018 8.01804 18.8657C8.32301 18.7296 8.66129 18.6862 8.99073 18.741C9.30144 18.7929 9.59563 18.917 9.8496 19.1034C10.1255 18.6457 10.6396 18.451 11.3255 18.5565C11.5125 18.5842 11.6933 18.6439 11.86 18.7331L12.3217 16.0973C12.4492 15.3823 13.2269 14.8875 14.024 15.0177C14.663 15.1223 14.9897 15.415 15.1512 15.6427C15.2454 15.7756 15.3118 15.9263 15.3462 16.0856C15.3807 16.2449 15.3825 16.4095 15.3516 16.5695L14.366 22.6731C14.8692 22.8209 15.4809 23.1462 15.7784 23.7566C16.1058 24.4222 15.9814 25.2241 15.4103 26.1399L12.974 29.5856C12.3371 30.4207 11.7254 31.1405 10.6957 31.551L10.6264 31.9751C10.6096 32.078 10.5569 32.1717 10.4777 32.2395C10.3984 32.3073 10.2977 32.3448 10.1934 32.3454V32.3454Z" fill="#CED0D0"/>
</g>
<defs>
<clipPath id="clip0_1_9">
<rect width="36.8182" height="36" fill="white" transform="translate(0.795456)"/>
</clipPath>
</defs>
</svg>
