<svg width="37" height="36" viewBox="0 0 37 36" fill="none" xmlns="http://www.w3.org/2000/svg">
<path d="M27.1822 26.9123H10.5694C10.37 26.9123 10.1788 26.8331 10.0378 26.6921C9.89684 26.5512 9.81766 26.36 9.81766 26.1606C9.81766 21.8112 12.4576 18.9998 16.5432 18.9998H21.2083C25.2946 18.9998 27.9346 21.8112 27.9346 26.1606C27.9346 26.2594 27.9151 26.3572 27.8773 26.4484C27.8395 26.5397 27.7841 26.6226 27.7142 26.6924C27.6443 26.7622 27.5613 26.8176 27.47 26.8553C27.3788 26.893 27.2809 26.9124 27.1822 26.9123V26.9123ZM11.3511 25.4089H26.3996C26.1388 22.3209 24.24 20.5032 21.2076 20.5032H16.5425C13.5108 20.5032 11.6142 22.3231 11.3511 25.4089Z" fill="#CED0D0"/>
<path d="M18.8923 16.9998C16.4192 16.9998 14.7579 15.0634 14.7579 12.1813C14.7579 9.29928 16.4192 7.36363 18.8923 7.36363C21.3654 7.36363 23.0267 9.29928 23.0267 12.1813C23.0267 15.0634 21.3654 16.9998 18.8923 16.9998ZM18.8923 8.86705C16.9529 8.86705 16.2613 10.5794 16.2613 12.1813C16.2613 13.7832 16.9529 15.4964 18.8923 15.4964C20.8317 15.4964 21.5233 13.784 21.5233 12.1813C21.5233 10.5787 20.8317 8.86705 18.8923 8.86705V8.86705Z" fill="#CED0D0"/>
</svg>
