<svg width="38" height="36" viewBox="0 0 38 36" fill="none" xmlns="http://www.w3.org/2000/svg">
<path fill-rule="evenodd" clip-rule="evenodd" d="M26.4083 6.54859C26.6895 6.51734 26.9427 6.71995 26.974 7.00112C27.0343 7.54421 27.0712 8.18523 27.0711 8.89428H29.9887C30.2716 8.89428 30.5009 9.12361 30.5009 9.40651C30.5009 9.68941 30.2716 9.91874 29.9887 9.91874H27.0458C26.9755 11.3625 26.7512 12.9989 26.2818 14.6276C25.8599 16.0917 25.2351 17.5646 24.3354 18.8871C25.1029 19.4179 26.033 19.8371 27.1525 20.061C27.4299 20.1165 27.6098 20.3864 27.5544 20.6638C27.4989 20.9412 27.229 21.1211 26.9516 21.0656C25.6636 20.808 24.5975 20.3242 23.7208 19.7122C22.9433 20.6653 21.9974 21.5114 20.851 22.1802C20.6066 22.3227 20.293 22.2402 20.1504 21.9958C20.0079 21.7515 20.0904 21.4378 20.3348 21.2953C21.3591 20.6978 22.2123 19.9381 22.9195 19.0733C20.9841 17.3191 20.22 14.9357 20.0832 13.5679C20.055 13.2864 20.2604 13.0354 20.5419 13.0072C20.8234 12.9791 21.0744 13.1844 21.1026 13.4659C21.2217 14.6578 21.8852 16.7089 23.5344 18.2427C24.3348 17.0482 24.9044 15.7075 25.2974 14.3439C25.7378 12.8157 25.9506 11.2769 26.0201 9.91874H18.8319C18.549 9.91874 18.3196 9.68941 18.3196 9.40651C18.3196 9.12361 18.549 8.89428 18.8319 8.89428H26.0467C26.0468 8.22512 26.0122 7.62201 25.9558 7.11425C25.9245 6.83308 26.1272 6.57983 26.4083 6.54859Z" fill="#CED0D0"/>
<path fill-rule="evenodd" clip-rule="evenodd" d="M15.1839 15.6456C15.1004 15.4704 14.9252 15.3574 14.7311 15.3537C14.5371 15.35 14.3577 15.4562 14.2676 15.6281L7.80841 27.9594C7.67714 28.21 7.77388 28.5195 8.02448 28.6508C8.27508 28.7821 8.58464 28.6853 8.71591 28.4347L10.2109 25.5806C10.3048 25.6981 10.4492 25.7733 10.6112 25.7733H18.8321C18.8452 25.7733 18.8583 25.7728 18.8712 25.7718L20.1309 28.4173C20.2526 28.6727 20.5582 28.7811 20.8136 28.6595C21.069 28.5379 21.1775 28.2322 21.0559 27.9768L15.1839 15.6456ZM18.3841 24.7488L14.6996 17.0114L10.6466 24.7488L18.3841 24.7488Z" fill="#CED0D0"/>
</svg>
