<svg width="17" height="16" viewBox="0 0 17 16" fill="none" xmlns="http://www.w3.org/2000/svg">
<path d="M16.5261 6.49105L12.8515 10.1953L13.647 15.3519C13.6568 15.4137 13.6494 15.477 13.6255 15.5348C13.6016 15.5926 13.5622 15.6426 13.5116 15.6794C13.461 15.7161 13.4012 15.7382 13.3388 15.743C13.2765 15.7479 13.214 15.7354 13.1583 15.7069L8.49993 13.3569L3.84149 15.707C3.7858 15.7355 3.72333 15.748 3.66098 15.7431C3.59863 15.7382 3.53884 15.7162 3.48825 15.6795C3.43765 15.6427 3.39822 15.5926 3.37432 15.5349C3.35043 15.4771 3.343 15.4138 3.35286 15.352L4.14837 10.1953L0.473795 6.49101C0.429914 6.44667 0.39908 6.39112 0.384673 6.33043C0.370266 6.26974 0.372841 6.20625 0.392116 6.14692C0.411391 6.0876 0.446622 6.03472 0.49395 5.99409C0.541278 5.95345 0.598877 5.92663 0.660436 5.91655L5.81047 5.0796L8.19794 0.440266C8.22648 0.384771 8.26977 0.338216 8.32305 0.305712C8.37632 0.273208 8.43752 0.256011 8.49993 0.256011C8.56234 0.256011 8.62354 0.273208 8.67681 0.305712C8.73008 0.338216 8.77337 0.384771 8.80192 0.440266L11.1894 5.0796L16.3394 5.91655C16.401 5.92663 16.4586 5.95345 16.5059 5.99409C16.5532 6.03472 16.5885 6.0876 16.6077 6.14692C16.627 6.20625 16.6296 6.26974 16.6152 6.33043C16.6008 6.39112 16.57 6.44671 16.5261 6.49105Z" fill="#F4C431"/>
</svg>
