<svg width="80" height="32" viewBox="0 0 80 32" fill="none" xmlns="http://www.w3.org/2000/svg">
<path d="M19.2591 4.79505C19.2591 3.58301 18.9794 2.63902 18.42 1.96307C17.8839 1.28713 17.1031 0.94916 16.0775 0.94916C16.0309 0.94916 16.0076 0.879235 16.0076 0.739385C16.0076 0.599535 16.0309 0.52961 16.0775 0.52961L17.6858 0.564572C18.5715 0.611188 19.2708 0.634496 19.7836 0.634496C20.2031 0.634496 20.8324 0.611188 21.6715 0.564572L23.2099 0.52961C23.2565 0.52961 23.2798 0.599535 23.2798 0.739385C23.2798 0.879235 23.2565 0.94916 23.2099 0.94916C22.3009 0.94916 21.59 1.28713 21.0772 1.96307C20.5877 2.63902 20.343 3.58301 20.343 4.79505V14.5846C20.343 16.2628 19.9817 17.7312 19.2591 18.9899C18.5599 20.2252 17.5576 21.1809 16.2523 21.8568C14.9704 22.5327 13.4786 22.8707 11.7771 22.8707C10.0756 22.8707 8.56055 22.5444 7.23197 21.8918C5.90339 21.2158 4.86617 20.2602 4.1203 19.0248C3.39774 17.7662 3.03646 16.2977 3.03646 14.6195V3.36158C3.03646 2.66233 2.96654 2.14954 2.82668 1.82323C2.68683 1.49691 2.43044 1.27548 2.05751 1.15893C1.70788 1.01908 1.14848 0.94916 0.379302 0.94916C0.309377 0.94916 0.274414 0.879235 0.274414 0.739385C0.274414 0.599535 0.309377 0.52961 0.379302 0.52961L2.19736 0.564572C3.22293 0.611188 4.05038 0.634496 4.6797 0.634496C5.37896 0.634496 6.24137 0.611188 7.26694 0.564572L9.01507 0.52961C9.08499 0.52961 9.11995 0.599535 9.11995 0.739385C9.11995 0.879235 9.08499 0.94916 9.01507 0.94916C8.24589 0.94916 7.67483 1.01908 7.3019 1.15893C6.92896 1.29879 6.67257 1.54352 6.53272 1.89315C6.41618 2.21947 6.35791 2.73225 6.35791 3.4315V13.3959C6.35791 16.1696 6.92896 18.244 8.07108 19.6192C9.2365 20.9711 10.8564 21.647 12.9309 21.647C14.9121 21.647 16.4621 21.041 17.5809 19.829C18.6997 18.5936 19.2591 16.8571 19.2591 14.6195V4.79505Z" fill="#333333"/>
<path d="M31.4321 19.5493C31.4321 20.2718 31.4904 20.7963 31.6069 21.1226C31.7235 21.4489 31.9565 21.6703 32.3062 21.7869C32.6791 21.9034 33.2618 21.9617 34.0543 21.9617C34.1242 21.9617 34.1592 22.0316 34.1592 22.1715C34.1592 22.3113 34.1242 22.3812 34.0543 22.3812C33.3084 22.3812 32.7141 22.3696 32.2712 22.3463L29.684 22.3113L27.1667 22.3463C26.7238 22.3696 26.1178 22.3812 25.3486 22.3812C25.2787 22.3812 25.2437 22.3113 25.2437 22.1715C25.2437 22.0316 25.2787 21.9617 25.3486 21.9617C26.1411 21.9617 26.7122 21.9034 27.0618 21.7869C27.4347 21.6703 27.6911 21.4489 27.831 21.1226C27.9708 20.773 28.0407 20.2485 28.0407 19.5493V3.36158C28.0407 2.66233 27.9708 2.14954 27.831 1.82323C27.6911 1.49691 27.4347 1.27548 27.0618 1.15893C26.7122 1.01908 26.1411 0.94916 25.3486 0.94916C25.2787 0.94916 25.2437 0.879235 25.2437 0.739385C25.2437 0.599535 25.2787 0.52961 25.3486 0.52961L27.1667 0.564572C28.1922 0.611188 29.0313 0.634496 29.684 0.634496C30.4065 0.634496 31.2806 0.611188 32.3062 0.564572L34.0543 0.52961C34.1242 0.52961 34.1592 0.599535 34.1592 0.739385C34.1592 0.879235 34.1242 0.94916 34.0543 0.94916C33.2851 0.94916 32.7141 1.01908 32.3411 1.15893C31.9915 1.29879 31.7468 1.54352 31.6069 1.89315C31.4904 2.21947 31.4321 2.73225 31.4321 3.4315V19.5493Z" fill="#333333"/>
<path d="M41.3918 4.23564C41.3918 5.09806 41.6016 5.86723 42.0211 6.54318C42.464 7.19581 43.0001 7.76687 43.6294 8.25635C44.2821 8.74582 45.1561 9.32853 46.2516 10.0045C47.4403 10.7503 48.3727 11.3913 49.0486 11.9274C49.7479 12.4635 50.3306 13.1278 50.7967 13.9203C51.2862 14.6895 51.531 15.5985 51.531 16.6474C51.531 17.8361 51.2163 18.8966 50.587 19.829C49.981 20.7613 49.1069 21.4955 47.9648 22.0316C46.846 22.5444 45.564 22.8008 44.1189 22.8008C43.1399 22.8008 42.126 22.6726 41.0771 22.4162C40.0516 22.1598 39.2707 21.8451 38.7346 21.4722C38.5249 21.3324 38.4083 21.1109 38.385 20.8079L38.1752 15.4936V15.4586C38.1752 15.3654 38.2335 15.3188 38.3501 15.3188C38.4666 15.2955 38.5365 15.3304 38.5598 15.4237C39.329 17.3583 40.2031 18.9433 41.182 20.1786C42.1843 21.4139 43.4546 22.0316 44.993 22.0316C45.9952 22.0316 46.8343 21.7636 47.5103 21.2275C48.1862 20.6681 48.5242 19.7474 48.5242 18.4654C48.5242 17.4399 48.2911 16.5425 47.8249 15.7733C47.3821 15.0041 46.8227 14.3631 46.1467 13.8504C45.4941 13.3376 44.5967 12.7083 43.4546 11.9624C42.3358 11.2398 41.4617 10.6338 40.8324 10.1443C40.2031 9.63154 39.667 9.01387 39.2241 8.29131C38.7813 7.54544 38.5598 6.68303 38.5598 5.70408C38.5598 4.49204 38.8978 3.46647 39.5737 2.62737C40.2497 1.78826 41.1238 1.17059 42.1959 0.774347C43.2914 0.354795 44.4336 0.14502 45.6223 0.14502C46.4148 0.14502 47.2073 0.226599 47.9997 0.389759C48.7922 0.529609 49.4565 0.716076 49.9926 0.94916C50.3422 1.08901 50.517 1.31044 50.517 1.61345L50.6219 6.36836C50.6219 6.43829 50.552 6.48491 50.4122 6.50822C50.2956 6.53152 50.2257 6.50822 50.2024 6.43829C49.7362 5.01648 49.1069 3.73451 48.3144 2.5924C47.5452 1.42698 46.3798 0.844271 44.8181 0.844271C43.7693 0.844271 42.9302 1.14728 42.3008 1.7533C41.6948 2.35932 41.3918 3.18677 41.3918 4.23564Z" fill="#333333"/>
<path d="M68.21 23.0156C61.8553 23.0055 56.6996 17.8397 56.7097 11.4951C56.7199 5.12515 61.8856 -0.0153282 68.2556 -0.000149578C74.6154 0.0200885 79.7356 5.17069 79.7255 11.5406C79.7103 17.8853 74.5496 23.0258 68.21 23.0156ZM72.116 16.0386C72.0249 15.7147 71.9591 15.4263 71.8579 15.1531C71.7466 14.8394 71.8276 14.6118 72.0806 14.3993C73.1279 13.524 74.1651 12.6335 75.2074 11.7481C75.2731 11.6924 75.3389 11.6317 75.4249 11.5508C75.1871 11.4344 74.9847 11.3332 74.7773 11.232C74.4737 11.0853 74.4484 11.0347 74.5344 10.7008C74.6508 10.2454 74.7773 9.79004 74.8937 9.32962C74.9645 9.04629 75.0353 8.76801 75.1163 8.45938C75.0202 8.47456 74.9645 8.47456 74.9088 8.48974C74.3877 8.60105 73.8716 8.71236 73.3505 8.82872C72.8597 8.93497 72.8193 8.91474 72.6827 8.4189C72.6219 8.19629 72.5612 7.97873 72.4853 7.70551C71.9541 8.32783 71.4684 8.89956 70.9776 9.46623C70.8511 9.61295 70.7246 9.84063 70.4919 9.73438C70.249 9.62307 70.335 9.36504 70.3705 9.16771C70.5577 8.09509 70.755 7.02753 70.9472 5.95997C70.9776 5.79807 70.9978 5.63616 71.0282 5.4186C70.669 5.61087 70.3603 5.78795 70.0466 5.94479C69.7481 6.09658 69.5812 6.04093 69.4294 5.74241C69.0651 5.03914 68.7059 4.33081 68.3416 3.62753C68.3011 3.55164 68.2556 3.47575 68.1949 3.3695C67.785 4.16384 67.4005 4.91265 67.016 5.66146C66.8085 6.06622 66.677 6.11176 66.2773 5.89926C65.9889 5.74747 65.7056 5.59063 65.3919 5.42366C65.3919 5.50462 65.3868 5.54509 65.3919 5.58557C65.5437 6.43051 65.6954 7.27545 65.8472 8.12545C65.9181 8.53021 66.0091 8.93498 66.0547 9.3448C66.0699 9.47129 65.9636 9.60789 65.913 9.7445C65.7865 9.6939 65.66 9.65343 65.5386 9.59777C65.4981 9.57754 65.4728 9.52188 65.4374 9.48646C64.9922 8.96533 64.552 8.44926 64.1068 7.92813C64.0562 7.86742 63.9954 7.81176 63.9145 7.72069C63.8234 8.04956 63.7425 8.32783 63.6666 8.61117C63.6059 8.83379 63.4693 8.91474 63.2517 8.8692C63.11 8.83885 62.9734 8.80849 62.8318 8.77813C62.3359 8.67188 61.835 8.56057 61.2987 8.4442C61.324 8.56563 61.3392 8.64658 61.3594 8.72753C61.5365 9.40551 61.7085 10.0835 61.8907 10.7564C61.9514 10.9841 61.8957 11.1258 61.6731 11.2168C61.4454 11.313 61.2329 11.4344 60.98 11.5558C61.1166 11.6722 61.2127 11.7582 61.3038 11.8391C62.3258 12.7094 63.3478 13.5746 64.3698 14.4397C64.5823 14.6219 64.6532 14.8192 64.5672 15.0874C64.471 15.3859 64.3952 15.6945 64.299 16.0284C64.4913 16.0082 64.6431 15.9981 64.7898 15.9778C65.7359 15.8665 66.6821 15.7502 67.6282 15.6388C67.9419 15.6034 68.0279 15.6894 68.0127 15.9981C67.9672 17.1264 67.9216 18.2546 67.8812 19.3829C67.8761 19.4639 67.8812 19.5448 67.8812 19.6258C68.0886 19.6258 68.2606 19.6258 68.463 19.6258C68.463 19.5296 68.463 19.4487 68.463 19.3677C68.4377 18.3305 68.4175 17.2933 68.3922 16.2561C68.377 15.5984 68.3972 15.5832 69.0449 15.6641C70.0669 15.7957 71.0585 15.9121 72.116 16.0386Z" fill="#F35C5C"/>
<path d="M72.1161 16.0386C71.0587 15.9121 70.0619 15.7958 69.0703 15.6693C68.4226 15.5883 68.4024 15.6035 68.4176 16.2612C68.4429 17.2985 68.4682 18.3357 68.4884 19.3729C68.4884 19.4538 68.4884 19.5348 68.4884 19.6309C68.286 19.6309 68.114 19.6309 67.9066 19.6309C67.9066 19.5499 67.9015 19.469 67.9066 19.388C67.9521 18.2598 67.9976 17.1315 68.0381 16.0032C68.0482 15.6895 67.9673 15.6035 67.6536 15.644C66.7075 15.7502 65.7613 15.8717 64.8152 15.983C64.6685 16.0032 64.5167 16.0133 64.3244 16.0336C64.4206 15.6996 64.4964 15.391 64.5926 15.0925C64.6786 14.8243 64.6078 14.622 64.3953 14.4449C63.3682 13.5797 62.3512 12.7095 61.3292 11.8443C61.2331 11.7633 61.1369 11.6824 61.0054 11.5609C61.2583 11.4345 61.4709 11.313 61.6985 11.222C61.9211 11.1309 61.9768 10.9892 61.9161 10.7615C61.7339 10.0886 61.5619 9.41065 61.3848 8.73267C61.3646 8.65172 61.3494 8.57583 61.3241 8.44934C61.8604 8.56571 62.3613 8.67196 62.8572 8.78327C62.9988 8.81362 63.1354 8.84398 63.2771 8.87434C63.4947 8.91988 63.6363 8.83892 63.692 8.6163C63.7679 8.33297 63.8488 8.04964 63.9399 7.72583C64.0208 7.81184 64.0816 7.87255 64.1322 7.93327C64.5774 8.4544 65.0176 8.97047 65.4628 9.4916C65.4932 9.53208 65.5235 9.58267 65.564 9.60291C65.6854 9.65857 65.8119 9.7041 65.9384 9.74964C65.989 9.61809 66.0953 9.47642 66.0801 9.34994C66.0345 8.94011 65.9435 8.53535 65.8726 8.13059C65.7209 7.28565 65.5691 6.44071 65.4173 5.59071C65.4122 5.55023 65.4173 5.50975 65.4173 5.4288C65.7259 5.59577 66.0143 5.75261 66.3027 5.9044C66.6973 6.11184 66.8339 6.0663 67.0414 5.6666C67.4259 4.91779 67.8104 4.16898 68.2203 3.37463C68.281 3.48088 68.3316 3.55678 68.367 3.63267C68.7313 4.33594 69.0905 5.04428 69.4548 5.74755C69.6066 6.04606 69.7735 6.10172 70.072 5.94993C70.3857 5.79309 70.6893 5.616 71.0536 5.42374C71.0182 5.6413 70.9979 5.80321 70.9726 5.96511C70.7804 7.03267 70.5831 8.10529 70.3959 9.17285C70.3604 9.37523 70.2744 9.62821 70.5173 9.73952C70.75 9.84577 70.8765 9.62315 71.003 9.47136C71.4938 8.9047 71.9795 8.33297 72.5107 7.71065C72.5866 7.9788 72.6473 8.20142 72.7081 8.42404C72.8447 8.91481 72.8851 8.94011 73.3759 8.83386C73.892 8.71749 74.4131 8.60618 74.9343 8.49488C74.9899 8.48476 75.0456 8.4797 75.1417 8.46452C75.0607 8.77315 74.995 9.05648 74.9191 9.33476C74.7976 9.79011 74.6762 10.2455 74.5598 10.7059C74.4738 11.0398 74.4991 11.0904 74.8027 11.2371C75.0051 11.3383 75.2075 11.4395 75.4503 11.5559C75.3593 11.6368 75.2985 11.6976 75.2328 11.7532C74.1905 12.6386 73.1533 13.5291 72.106 14.4044C71.8479 14.6169 71.772 14.8446 71.8834 15.1583C71.9592 15.4264 72.025 15.7148 72.1161 16.0386Z" fill="white"/>
<path d="M3.9106 25.8127C3.9106 25.592 3.85965 25.42 3.75776 25.2969C3.66012 25.1738 3.5179 25.1122 3.3311 25.1122C3.32261 25.1122 3.31837 25.0995 3.31837 25.074C3.31837 25.0485 3.32261 25.0358 3.3311 25.0358L3.62403 25.0422C3.78536 25.0507 3.91272 25.0549 4.00612 25.0549C4.08254 25.0549 4.19716 25.0507 4.35 25.0422L4.63019 25.0358C4.63869 25.0358 4.64293 25.0485 4.64293 25.074C4.64293 25.0995 4.63869 25.1122 4.63019 25.1122C4.46462 25.1122 4.33514 25.1738 4.24174 25.2969C4.15259 25.42 4.10801 25.592 4.10801 25.8127V27.5958C4.10801 27.9015 4.04221 28.1689 3.9106 28.3982C3.78324 28.6232 3.60068 28.7972 3.36294 28.9203C3.12945 29.0435 2.85774 29.105 2.54783 29.105C2.23791 29.105 1.96196 29.0456 1.71997 28.9267C1.47798 28.8036 1.28906 28.6295 1.15321 28.4045C1.0216 28.1753 0.955801 27.9078 0.955801 27.6022V25.5516C0.955801 25.4243 0.943065 25.3309 0.917592 25.2714C0.89212 25.212 0.84542 25.1717 0.777494 25.1504C0.713813 25.125 0.611923 25.1122 0.471825 25.1122C0.459089 25.1122 0.452721 25.0995 0.452721 25.074C0.452721 25.0485 0.459089 25.0358 0.471825 25.0358L0.802966 25.0422C0.989764 25.0507 1.14048 25.0549 1.2551 25.0549C1.38246 25.0549 1.53954 25.0507 1.72634 25.0422L2.04475 25.0358C2.05748 25.0358 2.06385 25.0485 2.06385 25.074C2.06385 25.0995 2.05748 25.1122 2.04475 25.1122C1.90465 25.1122 1.80064 25.125 1.73271 25.1504C1.66478 25.1759 1.61808 25.2205 1.59261 25.2842C1.57138 25.3436 1.56077 25.437 1.56077 25.5644V27.3793C1.56077 27.8845 1.66478 28.2623 1.87281 28.5128C2.08508 28.759 2.38013 28.8821 2.75797 28.8821C3.11883 28.8821 3.40115 28.7718 3.60493 28.551C3.80871 28.326 3.9106 28.0097 3.9106 27.6022V25.8127ZM7.7625 28.9395C7.77524 28.9395 7.78161 28.9522 7.78161 28.9777C7.78161 29.0031 7.77524 29.0159 7.7625 29.0159C7.65637 29.0159 7.57358 29.0137 7.51415 29.0095L7.1448 29.0031L6.78182 29.0095C6.71813 29.0137 6.63323 29.0159 6.52709 29.0159C6.51436 29.0159 6.50799 29.0031 6.50799 28.9777C6.50799 28.9522 6.51436 28.9395 6.52709 28.9395C6.67144 28.9395 6.76696 28.9097 6.81366 28.8503C6.86036 28.7909 6.88371 28.6741 6.88371 28.5001V27.5448C6.88371 27.3071 6.83913 27.133 6.74998 27.0227C6.66507 26.908 6.52921 26.8507 6.34242 26.8507C6.23204 26.8507 6.11953 26.8762 6.00491 26.9271C5.89028 26.9781 5.78627 27.046 5.69287 27.1309V28.5001C5.69287 28.6741 5.71622 28.7909 5.76292 28.8503C5.80962 28.9097 5.90514 28.9395 6.04948 28.9395C6.06222 28.9395 6.06859 28.9522 6.06859 28.9777C6.06859 29.0031 6.06222 29.0159 6.04948 29.0159C5.94335 29.0159 5.86056 29.0137 5.80113 29.0095L5.43178 29.0031L5.06243 29.0095C5.00299 29.0137 4.92021 29.0159 4.81407 29.0159C4.80134 29.0159 4.79497 29.0031 4.79497 28.9777C4.79497 28.9522 4.80134 28.9395 4.81407 28.9395C4.95842 28.9395 5.05394 28.9097 5.10064 28.8503C5.14734 28.7909 5.17069 28.6741 5.17069 28.5001V27.2837C5.17069 27.1479 5.1537 27.0481 5.11974 26.9844C5.09002 26.9208 5.03908 26.8889 4.96691 26.8889C4.90323 26.8889 4.79709 26.9208 4.6485 26.9844H4.64213C4.62515 26.9844 4.61242 26.9738 4.60393 26.9526C4.59543 26.9314 4.59756 26.9186 4.61029 26.9144L5.44451 26.5068C5.46999 26.4983 5.48485 26.4941 5.48909 26.4941C5.53155 26.4941 5.574 26.5429 5.61645 26.6406C5.66315 26.734 5.68863 26.8571 5.69287 27.0099C5.99005 26.6575 6.3127 26.4814 6.66082 26.4814C6.89432 26.4814 7.07687 26.5535 7.20848 26.6979C7.34009 26.838 7.40589 27.029 7.40589 27.271V28.5001C7.40589 28.6741 7.42924 28.7909 7.47594 28.8503C7.52264 28.9097 7.61816 28.9395 7.7625 28.9395ZM8.75234 25.8255C8.64196 25.8255 8.55493 25.7957 8.49125 25.7363C8.43182 25.6769 8.4021 25.592 8.4021 25.4816C8.4021 25.3754 8.43182 25.2948 8.49125 25.2396C8.55493 25.1802 8.64196 25.1504 8.75234 25.1504C8.85848 25.1504 8.94126 25.1802 9.0007 25.2396C9.06014 25.2948 9.08985 25.3754 9.08985 25.4816C9.08985 25.592 9.06014 25.6769 9.0007 25.7363C8.94551 25.7957 8.86272 25.8255 8.75234 25.8255ZM8.16648 29.0159C8.15374 29.0159 8.14738 29.0031 8.14738 28.9777C8.14738 28.9522 8.15374 28.9395 8.16648 28.9395C8.31082 28.9395 8.40634 28.9097 8.45304 28.8503C8.49974 28.7909 8.52309 28.6741 8.52309 28.5001V27.3411C8.52309 27.1967 8.50823 27.0927 8.47852 27.029C8.4488 26.9611 8.39785 26.9271 8.32568 26.9271C8.262 26.9271 8.17922 26.9526 8.07733 27.0035H8.07096C8.05398 27.0035 8.04124 26.9929 8.03275 26.9717C8.02426 26.9505 8.02638 26.9356 8.03912 26.9271L8.95612 26.5005L8.97523 26.4941C8.99221 26.4941 9.00919 26.5047 9.02617 26.5259C9.0474 26.5429 9.05801 26.5578 9.05801 26.5705V26.7042C9.04952 26.8826 9.04528 27.0927 9.04528 27.3347V28.5001C9.04528 28.6741 9.06863 28.7909 9.11533 28.8503C9.16627 28.9097 9.26392 28.9395 9.40826 28.9395C9.421 28.9395 9.42736 28.9522 9.42736 28.9777C9.42736 29.0031 9.421 29.0159 9.40826 29.0159C9.30212 29.0159 9.21722 29.0137 9.15353 29.0095L8.78418 29.0031L8.41484 29.0095C8.3554 29.0137 8.27261 29.0159 8.16648 29.0159ZM12.418 26.5578C12.4265 26.5578 12.4307 26.5705 12.4307 26.596C12.4307 26.6215 12.4265 26.6342 12.418 26.6342C12.2991 26.6342 12.1951 26.6767 12.1059 26.7616C12.021 26.8465 11.9383 26.9823 11.8576 27.1691L11.0679 29.0159C11.0595 29.0371 11.0382 29.0477 11.0043 29.0477C10.9661 29.0477 10.9406 29.0371 10.9278 29.0159L9.98537 27.0863C9.89621 26.8995 9.8198 26.7785 9.75612 26.7234C9.69244 26.6639 9.6139 26.6342 9.5205 26.6342C9.50776 26.6342 9.50139 26.6215 9.50139 26.596C9.50139 26.5705 9.50776 26.5578 9.5205 26.5578C9.59691 26.5578 9.65847 26.5599 9.70517 26.5642L10.0745 26.5705L10.5458 26.5642C10.6137 26.5599 10.7071 26.5578 10.826 26.5578C10.8387 26.5578 10.8451 26.5705 10.8451 26.596C10.8451 26.6215 10.8387 26.6342 10.826 26.6342C10.5755 26.6342 10.4502 26.683 10.4502 26.7807C10.4502 26.8061 10.4609 26.8401 10.4821 26.8826L11.2144 28.3281L11.6984 27.1564C11.7281 27.0842 11.743 27.0142 11.743 26.9462C11.743 26.8443 11.7048 26.7679 11.6283 26.717C11.5562 26.6618 11.4479 26.6342 11.3036 26.6342C11.2951 26.6342 11.2908 26.6215 11.2908 26.596C11.2908 26.5705 11.2951 26.5578 11.3036 26.5578C11.4182 26.5578 11.5052 26.5599 11.5647 26.5642L11.9467 26.5705L12.1951 26.5642C12.2418 26.5599 12.3161 26.5578 12.418 26.5578ZM14.7836 28.6147C14.7921 28.6147 14.8006 28.6232 14.8091 28.6402C14.8218 28.6571 14.8239 28.6699 14.8154 28.6784C14.6583 28.8227 14.5013 28.9288 14.3442 28.9968C14.1871 29.0604 14.0173 29.0923 13.8347 29.0923C13.5758 29.0923 13.3508 29.035 13.1597 28.9203C12.9729 28.8057 12.8286 28.655 12.7267 28.4682C12.629 28.2814 12.5802 28.0798 12.5802 27.8632C12.5802 27.6128 12.6418 27.3835 12.7649 27.1755C12.888 26.9675 13.0557 26.804 13.268 26.6851C13.4845 26.562 13.7244 26.5005 13.9876 26.5005C14.2423 26.5005 14.4397 26.562 14.5798 26.6851C14.7199 26.8083 14.79 26.9908 14.79 27.2328C14.79 27.3559 14.7645 27.4175 14.7135 27.4175L13.1597 27.4238C13.1555 27.4621 13.1533 27.5194 13.1533 27.5958C13.1533 27.9694 13.2383 28.2666 13.4081 28.4873C13.5821 28.7038 13.8284 28.8121 14.1468 28.8121C14.2656 28.8121 14.3654 28.7994 14.4461 28.7739C14.5267 28.7442 14.635 28.6932 14.7708 28.621L14.7836 28.6147ZM13.7583 26.6278C13.6012 26.6278 13.4718 26.6894 13.3699 26.8125C13.2722 26.9314 13.2064 27.0969 13.1725 27.3092L14.1913 27.2901C14.1829 26.8486 14.0385 26.6278 13.7583 26.6278ZM16.8662 26.4941C16.9638 26.4941 17.0572 26.5259 17.1464 26.5896C17.2355 26.6533 17.2801 26.7297 17.2801 26.8189C17.2801 26.8995 17.2547 26.9653 17.2037 27.0163C17.157 27.0672 17.0912 27.0927 17.0063 27.0927C16.9511 27.0927 16.9044 27.0821 16.8662 27.0609C16.8322 27.0354 16.7962 27.0014 16.7579 26.959C16.7197 26.9208 16.6858 26.8932 16.6561 26.8762C16.6263 26.855 16.5902 26.8443 16.5478 26.8443C16.5011 26.8443 16.4502 26.8635 16.395 26.9017C16.344 26.9356 16.2634 27.0099 16.153 27.1245V28.5001C16.153 28.6189 16.17 28.7102 16.2039 28.7739C16.2379 28.8333 16.2952 28.8758 16.3759 28.9012C16.4565 28.9267 16.5754 28.9395 16.7325 28.9395C16.7495 28.9395 16.7579 28.9522 16.7579 28.9777C16.7579 29.0031 16.7495 29.0159 16.7325 29.0159C16.5924 29.0159 16.4799 29.0137 16.395 29.0095L15.8919 29.0031L15.5225 29.0095C15.4631 29.0137 15.3803 29.0159 15.2742 29.0159C15.2614 29.0159 15.2551 29.0031 15.2551 28.9777C15.2551 28.9522 15.2614 28.9395 15.2742 28.9395C15.4185 28.9395 15.514 28.9097 15.5607 28.8503C15.6074 28.7909 15.6308 28.6741 15.6308 28.5001V27.2837C15.6308 27.1479 15.6138 27.0481 15.5798 26.9844C15.5501 26.9208 15.4992 26.8889 15.427 26.8889C15.3633 26.8889 15.2572 26.9208 15.1086 26.9844H15.1022C15.0853 26.9844 15.0725 26.9738 15.064 26.9526C15.0555 26.9314 15.0577 26.9186 15.0704 26.9144L15.9046 26.5068C15.9301 26.4983 15.9449 26.4941 15.9492 26.4941C15.9916 26.4941 16.0341 26.5408 16.0766 26.6342C16.119 26.7234 16.1445 26.8422 16.153 26.9908C16.3185 26.804 16.4565 26.6745 16.5669 26.6024C16.6773 26.5302 16.777 26.4941 16.8662 26.4941ZM18.1081 26.8889C18.1081 27.0205 18.1527 27.1309 18.2419 27.2201C18.3353 27.3092 18.469 27.4026 18.643 27.5003C18.7959 27.5852 18.9126 27.6552 18.9933 27.7104C19.0782 27.7656 19.1504 27.8399 19.2098 27.9333C19.2735 28.0267 19.3053 28.1392 19.3053 28.2708C19.3053 28.4151 19.2692 28.5489 19.1971 28.672C19.1249 28.7951 19.0166 28.8949 18.8723 28.9713C18.7322 29.0477 18.5645 29.0859 18.3692 29.0859C18.1357 29.0859 17.9213 29.0265 17.726 28.9076C17.7006 28.8821 17.6878 28.8567 17.6878 28.8312L17.6751 28.2453C17.6751 28.2326 17.6857 28.2262 17.7069 28.2262C17.7324 28.222 17.7473 28.2241 17.7515 28.2326C17.8237 28.4449 17.9319 28.6189 18.0763 28.7548C18.2249 28.8906 18.382 28.9586 18.5475 28.9586C18.6537 28.9586 18.7364 28.931 18.7959 28.8758C18.8553 28.8206 18.885 28.7378 18.885 28.6274C18.885 28.4661 18.8383 28.3387 18.7449 28.2453C18.6515 28.1477 18.5157 28.0522 18.3374 27.9588C18.193 27.8823 18.0805 27.8187 17.9999 27.7677C17.9192 27.7125 17.8492 27.6404 17.7897 27.5512C17.7345 27.4578 17.7069 27.3432 17.7069 27.2073C17.7069 26.9653 17.794 26.7849 17.968 26.666C18.1463 26.5472 18.3607 26.4877 18.6112 26.4877C18.7768 26.4877 18.9466 26.5196 19.1207 26.5833C19.1589 26.6002 19.178 26.6236 19.178 26.6533C19.178 26.7509 19.1758 26.8274 19.1716 26.8826L19.1652 27.1882C19.1652 27.201 19.1525 27.2073 19.127 27.2073C19.1016 27.2073 19.0888 27.201 19.0888 27.1882C19.0888 27.1033 19.0549 27.0163 18.9869 26.9271C18.919 26.8337 18.832 26.7573 18.7258 26.6979C18.6197 26.6384 18.5114 26.6087 18.4011 26.6087C18.2058 26.6087 18.1081 26.7021 18.1081 26.8889ZM22.2023 28.672C22.2193 28.672 22.2299 28.6826 22.2341 28.7038C22.2384 28.7208 22.232 28.7336 22.215 28.742L21.5591 29.0541C21.5421 29.0626 21.523 29.0668 21.5018 29.0668C21.4381 29.0668 21.3765 29.0307 21.3171 28.9586C21.2619 28.8821 21.2258 28.7824 21.2088 28.6593L20.9159 28.863C20.814 28.9352 20.7206 28.9862 20.6357 29.0159C20.5551 29.0456 20.4638 29.0604 20.3619 29.0604C20.1878 29.0604 20.0541 29.0201 19.9607 28.9395C19.8715 28.8545 19.827 28.7442 19.827 28.6083C19.827 28.4937 19.8567 28.4003 19.9161 28.3281C19.9798 28.2559 20.0583 28.1986 20.1517 28.1562C20.2494 28.1095 20.3916 28.0522 20.5784 27.9842L21.1961 27.755V27.3729C21.1961 27.1097 21.1685 26.9186 21.1133 26.7998C21.0624 26.6767 20.9796 26.6151 20.865 26.6151C20.7249 26.6151 20.623 26.6682 20.5593 26.7743C20.4999 26.8762 20.4638 26.9908 20.451 27.1182C20.4256 27.3347 20.3173 27.4429 20.1263 27.4429C20.0329 27.4429 19.9628 27.4217 19.9161 27.3793C19.8737 27.3368 19.8524 27.2837 19.8524 27.2201C19.8524 27.1012 19.9225 26.9866 20.0626 26.8762C20.2069 26.7616 20.3789 26.6703 20.5784 26.6024C20.7822 26.5302 20.9605 26.4941 21.1133 26.4941C21.2959 26.4941 21.4402 26.5514 21.5464 26.666C21.6567 26.7807 21.7119 26.9526 21.7119 27.1819V28.3281C21.7119 28.4597 21.7332 28.5595 21.7756 28.6274C21.8181 28.6953 21.8796 28.7293 21.9603 28.7293C22.024 28.7293 22.1004 28.7102 22.1895 28.672H22.2023ZM21.1961 28.5574V28.4937V27.8632L20.814 28.0224C20.7036 28.0649 20.6124 28.1158 20.5402 28.1753C20.4723 28.2305 20.4383 28.3111 20.4383 28.4173C20.4383 28.5192 20.4701 28.6019 20.5338 28.6656C20.6018 28.7251 20.6824 28.7548 20.7758 28.7548C20.8522 28.7548 20.9329 28.7293 21.0178 28.6784L21.1961 28.5574ZM22.4501 29.0159C22.4374 29.0159 22.431 29.0031 22.431 28.9777C22.431 28.9522 22.4374 28.9395 22.4501 28.9395C22.5902 28.9395 22.6857 28.9097 22.7367 28.8503C22.7876 28.7866 22.8131 28.6699 22.8131 28.5001V25.246C22.8131 25.0974 22.7983 24.9912 22.7685 24.9275C22.7431 24.8596 22.6942 24.8257 22.6221 24.8257C22.5584 24.8257 22.4735 24.8511 22.3673 24.9021H22.361C22.344 24.9021 22.3313 24.8915 22.3228 24.8702C22.3143 24.849 22.3143 24.8342 22.3228 24.8257L23.2207 24.4054L23.2461 24.399C23.2631 24.399 23.2822 24.4075 23.3035 24.4245C23.3289 24.4415 23.3417 24.4563 23.3417 24.469V28.5001C23.3417 28.6741 23.365 28.7909 23.4117 28.8503C23.4584 28.9097 23.5539 28.9395 23.6983 28.9395C23.711 28.9395 23.7174 28.9522 23.7174 28.9777C23.7174 29.0031 23.711 29.0159 23.6983 29.0159C23.5964 29.0159 23.5136 29.0137 23.4499 29.0095L23.0742 29.0031L22.7049 29.0095C22.6412 29.0137 22.5563 29.0159 22.4501 29.0159ZM26.7806 28.5001C26.7806 28.6317 26.7912 28.7272 26.8124 28.7866C26.8337 28.8461 26.8761 28.8864 26.9398 28.9076C27.0077 28.9288 27.1138 28.9395 27.2582 28.9395C27.2709 28.9395 27.2773 28.9522 27.2773 28.9777C27.2773 29.0031 27.2709 29.0159 27.2582 29.0159C27.1223 29.0159 27.0141 29.0137 26.9334 29.0095L26.4622 29.0031L26.0037 29.0095C25.923 29.0137 25.8126 29.0159 25.6725 29.0159C25.6598 29.0159 25.6534 29.0031 25.6534 28.9777C25.6534 28.9522 25.6598 28.9395 25.6725 28.9395C25.8169 28.9395 25.9209 28.9288 25.9846 28.9076C26.0525 28.8864 26.0992 28.8461 26.1247 28.7866C26.1501 28.7229 26.1629 28.6274 26.1629 28.5001V25.5516C26.1629 25.4243 26.1501 25.3309 26.1247 25.2714C26.0992 25.212 26.0525 25.1717 25.9846 25.1504C25.9209 25.125 25.8169 25.1122 25.6725 25.1122C25.6598 25.1122 25.6534 25.0995 25.6534 25.074C25.6534 25.0485 25.6598 25.0358 25.6725 25.0358L26.0037 25.0422C26.1905 25.0507 26.3433 25.0549 26.4622 25.0549C26.5938 25.0549 26.753 25.0507 26.9398 25.0422L27.2582 25.0358C27.2709 25.0358 27.2773 25.0485 27.2773 25.074C27.2773 25.0995 27.2709 25.1122 27.2582 25.1122C27.1181 25.1122 27.0141 25.125 26.9462 25.1504C26.8825 25.1759 26.8379 25.2205 26.8124 25.2842C26.7912 25.3436 26.7806 25.437 26.7806 25.5644V28.5001ZM32.3455 28.9395C32.3624 28.9395 32.3709 28.9522 32.3709 28.9777C32.3709 29.0031 32.3624 29.0159 32.3455 29.0159C32.2393 29.0159 32.1544 29.0137 32.0907 29.0095L31.7278 29.0031L31.3648 29.0095C31.3011 29.0137 31.2162 29.0159 31.11 29.0159C31.0973 29.0159 31.0909 29.0031 31.0909 28.9777C31.0909 28.9522 31.0973 28.9395 31.11 28.9395C31.2501 28.9395 31.3457 28.9097 31.3966 28.8503C31.4476 28.7866 31.473 28.6699 31.473 28.5001V27.5512C31.473 27.3135 31.4306 27.1373 31.3457 27.0227C31.265 26.908 31.1398 26.8507 30.9699 26.8507C30.8553 26.8507 30.7407 26.8783 30.6261 26.9335C30.5114 26.9887 30.4117 27.063 30.3268 27.1564V27.2201V28.5001C30.3268 28.6741 30.3501 28.7909 30.3968 28.8503C30.4478 28.9097 30.5454 28.9395 30.6898 28.9395C30.7025 28.9395 30.7089 28.9522 30.7089 28.9777C30.7089 29.0031 30.7025 29.0159 30.6898 29.0159C30.5836 29.0159 30.4987 29.0137 30.435 29.0095L30.0657 29.0031L29.7027 29.0095C29.639 29.0137 29.5541 29.0159 29.448 29.0159C29.4352 29.0159 29.4289 29.0031 29.4289 28.9777C29.4289 28.9522 29.4352 28.9395 29.448 28.9395C29.5923 28.9395 29.6878 28.9097 29.7345 28.8503C29.7855 28.7909 29.811 28.6741 29.811 28.5001V27.5512C29.811 27.3135 29.7685 27.1373 29.6836 27.0227C29.6029 26.908 29.4777 26.8507 29.3079 26.8507C29.2017 26.8507 29.0935 26.8762 28.9831 26.9271C28.8727 26.9781 28.7751 27.046 28.6902 27.1309V28.5001C28.6902 28.6741 28.7135 28.7909 28.7602 28.8503C28.8069 28.9097 28.9024 28.9395 29.0468 28.9395C29.0595 28.9395 29.0659 28.9522 29.0659 28.9777C29.0659 29.0031 29.0595 29.0159 29.0468 29.0159C28.9406 29.0159 28.8579 29.0137 28.7984 29.0095L28.4291 29.0031L28.0597 29.0095C28.0003 29.0137 27.9175 29.0159 27.8114 29.0159C27.7986 29.0159 27.7923 29.0031 27.7923 28.9777C27.7923 28.9522 27.7986 28.9395 27.8114 28.9395C27.9557 28.9395 28.0512 28.9097 28.0979 28.8503C28.1446 28.7909 28.168 28.6741 28.168 28.5001V27.2837C28.168 27.1479 28.151 27.0481 28.117 26.9844C28.0873 26.9208 28.0364 26.8889 27.9642 26.8889C27.9005 26.8889 27.7944 26.9208 27.6458 26.9844H27.6394C27.6225 26.9844 27.6097 26.9738 27.6012 26.9526C27.5927 26.9314 27.5949 26.9186 27.6076 26.9144L28.4418 26.5068C28.4673 26.4983 28.4821 26.4941 28.4864 26.4941C28.5288 26.4941 28.5713 26.5429 28.6138 26.6406C28.6605 26.734 28.6859 26.8571 28.6902 27.0099C28.9746 26.6618 29.2845 26.4877 29.6199 26.4877C29.8152 26.4877 29.9723 26.5366 30.0912 26.6342C30.21 26.7276 30.2843 26.8656 30.314 27.0481C30.6155 26.6745 30.9381 26.4877 31.282 26.4877C31.507 26.4877 31.6789 26.5535 31.7978 26.6851C31.9209 26.8125 31.9825 27.0078 31.9825 27.271V28.5001C31.9825 28.6741 32.0058 28.7909 32.0525 28.8503C32.1035 28.9097 32.2011 28.9395 32.3455 28.9395ZM37.2646 28.9395C37.2815 28.9395 37.29 28.9522 37.29 28.9777C37.29 29.0031 37.2815 29.0159 37.2646 29.0159C37.1584 29.0159 37.0735 29.0137 37.0098 29.0095L36.6469 29.0031L36.2839 29.0095C36.2202 29.0137 36.1353 29.0159 36.0292 29.0159C36.0164 29.0159 36.0101 29.0031 36.0101 28.9777C36.0101 28.9522 36.0164 28.9395 36.0292 28.9395C36.1693 28.9395 36.2648 28.9097 36.3157 28.8503C36.3667 28.7866 36.3921 28.6699 36.3921 28.5001V27.5512C36.3921 27.3135 36.3497 27.1373 36.2648 27.0227C36.1841 26.908 36.0589 26.8507 35.8891 26.8507C35.7744 26.8507 35.6598 26.8783 35.5452 26.9335C35.4306 26.9887 35.3308 27.063 35.2459 27.1564V27.2201V28.5001C35.2459 28.6741 35.2692 28.7909 35.3159 28.8503C35.3669 28.9097 35.4645 28.9395 35.6089 28.9395C35.6216 28.9395 35.628 28.9522 35.628 28.9777C35.628 29.0031 35.6216 29.0159 35.6089 29.0159C35.5027 29.0159 35.4178 29.0137 35.3541 29.0095L34.9848 29.0031L34.6218 29.0095C34.5581 29.0137 34.4732 29.0159 34.3671 29.0159C34.3543 29.0159 34.348 29.0031 34.348 28.9777C34.348 28.9522 34.3543 28.9395 34.3671 28.9395C34.5114 28.9395 34.6069 28.9097 34.6536 28.8503C34.7046 28.7909 34.7301 28.6741 34.7301 28.5001V27.5512C34.7301 27.3135 34.6876 27.1373 34.6027 27.0227C34.522 26.908 34.3968 26.8507 34.227 26.8507C34.1208 26.8507 34.0126 26.8762 33.9022 26.9271C33.7918 26.9781 33.6942 27.046 33.6093 27.1309V28.5001C33.6093 28.6741 33.6326 28.7909 33.6793 28.8503C33.726 28.9097 33.8215 28.9395 33.9659 28.9395C33.9786 28.9395 33.985 28.9522 33.985 28.9777C33.985 29.0031 33.9786 29.0159 33.9659 29.0159C33.8598 29.0159 33.777 29.0137 33.7175 29.0095L33.3482 29.0031L32.9788 29.0095C32.9194 29.0137 32.8366 29.0159 32.7305 29.0159C32.7177 29.0159 32.7114 29.0031 32.7114 28.9777C32.7114 28.9522 32.7177 28.9395 32.7305 28.9395C32.8748 28.9395 32.9703 28.9097 33.017 28.8503C33.0637 28.7909 33.0871 28.6741 33.0871 28.5001V27.2837C33.0871 27.1479 33.0701 27.0481 33.0361 26.9844C33.0064 26.9208 32.9555 26.8889 32.8833 26.8889C32.8196 26.8889 32.7135 26.9208 32.5649 26.9844H32.5585C32.5416 26.9844 32.5288 26.9738 32.5203 26.9526C32.5118 26.9314 32.514 26.9186 32.5267 26.9144L33.3609 26.5068C33.3864 26.4983 33.4013 26.4941 33.4055 26.4941C33.448 26.4941 33.4904 26.5429 33.5329 26.6406C33.5796 26.734 33.605 26.8571 33.6093 27.0099C33.8937 26.6618 34.2036 26.4877 34.539 26.4877C34.7343 26.4877 34.8914 26.5366 35.0103 26.6342C35.1291 26.7276 35.2034 26.8656 35.2331 27.0481C35.5346 26.6745 35.8572 26.4877 36.2011 26.4877C36.4261 26.4877 36.598 26.5535 36.7169 26.6851C36.84 26.8125 36.9016 27.0078 36.9016 27.271V28.5001C36.9016 28.6741 36.9249 28.7909 36.9716 28.8503C37.0226 28.9097 37.1202 28.9395 37.2646 28.9395ZM38.2546 25.8255C38.1442 25.8255 38.0571 25.7957 37.9935 25.7363C37.934 25.6769 37.9043 25.592 37.9043 25.4816C37.9043 25.3754 37.934 25.2948 37.9935 25.2396C38.0571 25.1802 38.1442 25.1504 38.2546 25.1504C38.3607 25.1504 38.4435 25.1802 38.5029 25.2396C38.5623 25.2948 38.5921 25.3754 38.5921 25.4816C38.5921 25.592 38.5623 25.6769 38.5029 25.7363C38.4477 25.7957 38.3649 25.8255 38.2546 25.8255ZM37.6687 29.0159C37.656 29.0159 37.6496 29.0031 37.6496 28.9777C37.6496 28.9522 37.656 28.9395 37.6687 28.9395C37.813 28.9395 37.9086 28.9097 37.9553 28.8503C38.002 28.7909 38.0253 28.6741 38.0253 28.5001V27.3411C38.0253 27.1967 38.0104 27.0927 37.9807 27.029C37.951 26.9611 37.9001 26.9271 37.8279 26.9271C37.7642 26.9271 37.6814 26.9526 37.5795 27.0035H37.5732C37.5562 27.0035 37.5435 26.9929 37.535 26.9717C37.5265 26.9505 37.5286 26.9356 37.5413 26.9271L38.4583 26.5005L38.4774 26.4941C38.4944 26.4941 38.5114 26.5047 38.5284 26.5259C38.5496 26.5429 38.5602 26.5578 38.5602 26.5705V26.7042C38.5517 26.8826 38.5475 27.0927 38.5475 27.3347V28.5001C38.5475 28.6741 38.5708 28.7909 38.6175 28.8503C38.6685 28.9097 38.7661 28.9395 38.9105 28.9395C38.9232 28.9395 38.9296 28.9522 38.9296 28.9777C38.9296 29.0031 38.9232 29.0159 38.9105 29.0159C38.8043 29.0159 38.7194 29.0137 38.6557 29.0095L38.2864 29.0031L37.917 29.0095C37.8576 29.0137 37.7748 29.0159 37.6687 29.0159ZM40.6784 28.793C40.9204 28.7972 41.1178 28.81 41.2706 28.8312C41.4235 28.8524 41.5551 28.9119 41.6655 29.0095C41.7801 29.1071 41.8374 29.26 41.8374 29.468C41.8374 29.7015 41.7631 29.9201 41.6145 30.1239C41.4659 30.3319 41.2685 30.4975 41.0223 30.6206C40.7761 30.7437 40.5128 30.8053 40.2326 30.8053C39.9397 30.8053 39.702 30.7395 39.5194 30.6079C39.3411 30.4763 39.252 30.3043 39.252 30.0921C39.252 29.7907 39.4685 29.4956 39.9015 29.2069C39.5873 29.1475 39.4303 28.9968 39.4303 28.7548C39.4303 28.6232 39.4664 28.5022 39.5385 28.3918C39.6149 28.2814 39.7296 28.1732 39.8824 28.067C39.7253 27.9949 39.6022 27.8908 39.5131 27.755C39.4281 27.6191 39.3857 27.4748 39.3857 27.322C39.3857 27.1564 39.4366 27.012 39.5385 26.8889C39.6404 26.7658 39.772 26.6724 39.9333 26.6087C40.0989 26.545 40.2751 26.5132 40.4619 26.5132C40.7336 26.5132 40.9586 26.5811 41.1369 26.717C41.2515 26.6448 41.364 26.5917 41.4744 26.5578C41.5848 26.5196 41.7037 26.5005 41.831 26.5005C41.8608 26.5005 41.8756 26.5557 41.8756 26.666C41.8756 26.7255 41.8671 26.787 41.8501 26.8507C41.8374 26.9144 41.8225 26.9399 41.8056 26.9271C41.6273 26.8592 41.4744 26.8252 41.3471 26.8252C41.3089 26.8252 41.2813 26.8274 41.2643 26.8316C41.3874 26.9675 41.449 27.1288 41.449 27.3156C41.449 27.4769 41.398 27.6234 41.2961 27.755C41.1942 27.8866 41.0605 27.9885 40.8949 28.0607C40.7294 28.1328 40.5532 28.1689 40.3664 28.1689C40.2263 28.1689 40.0989 28.1498 39.9843 28.1116C39.8909 28.2008 39.8442 28.3069 39.8442 28.43C39.8442 28.5828 39.9058 28.6805 40.0289 28.7229C40.1562 28.7654 40.3727 28.7887 40.6784 28.793ZM40.2709 26.6278C40.0416 26.6278 39.927 26.7998 39.927 27.1436C39.927 27.322 39.9546 27.4812 40.0098 27.6213C40.0692 27.7614 40.1435 27.8696 40.2326 27.946C40.326 28.0224 40.4216 28.0607 40.5192 28.0607C40.6296 28.0607 40.7209 28.014 40.793 27.9206C40.8652 27.8229 40.9013 27.6764 40.9013 27.4812C40.9013 27.3029 40.8695 27.15 40.8058 27.0227C40.7463 26.891 40.6678 26.7934 40.5702 26.7297C40.4768 26.6618 40.377 26.6278 40.2709 26.6278ZM40.5765 30.6079C40.8185 30.6079 41.0117 30.5357 41.156 30.3914C41.3046 30.2513 41.3789 30.0602 41.3789 29.8182C41.3789 29.6399 41.3386 29.5105 41.2579 29.4298C41.1815 29.3491 41.0775 29.2982 40.9459 29.277C40.8185 29.2557 40.636 29.2451 40.3982 29.2451C40.2793 29.2451 40.1647 29.2388 40.0543 29.226C39.8548 29.3704 39.755 29.5614 39.755 29.7991C39.755 30.0539 39.8315 30.2513 39.9843 30.3914C40.1414 30.5357 40.3388 30.6079 40.5765 30.6079ZM43.7938 26.4941C43.8915 26.4941 43.9849 26.5259 44.074 26.5896C44.1632 26.6533 44.2077 26.7297 44.2077 26.8189C44.2077 26.8995 44.1823 26.9653 44.1313 27.0163C44.0846 27.0672 44.0188 27.0927 43.9339 27.0927C43.8787 27.0927 43.832 27.0821 43.7938 27.0609C43.7598 27.0354 43.7238 27.0014 43.6856 26.959C43.6473 26.9208 43.6134 26.8932 43.5837 26.8762C43.5539 26.855 43.5179 26.8443 43.4754 26.8443C43.4287 26.8443 43.3778 26.8635 43.3226 26.9017C43.2716 26.9356 43.191 27.0099 43.0806 27.1245V28.5001C43.0806 28.6189 43.0976 28.7102 43.1315 28.7739C43.1655 28.8333 43.2228 28.8758 43.3035 28.9012C43.3841 28.9267 43.503 28.9395 43.6601 28.9395C43.6771 28.9395 43.6856 28.9522 43.6856 28.9777C43.6856 29.0031 43.6771 29.0159 43.6601 29.0159C43.52 29.0159 43.4075 29.0137 43.3226 29.0095L42.8195 29.0031L42.4501 29.0095C42.3907 29.0137 42.3079 29.0159 42.2018 29.0159C42.189 29.0159 42.1827 29.0031 42.1827 28.9777C42.1827 28.9522 42.189 28.9395 42.2018 28.9395C42.3461 28.9395 42.4417 28.9097 42.4883 28.8503C42.535 28.7909 42.5584 28.6741 42.5584 28.5001V27.2837C42.5584 27.1479 42.5414 27.0481 42.5075 26.9844C42.4777 26.9208 42.4268 26.8889 42.3546 26.8889C42.2909 26.8889 42.1848 26.9208 42.0362 26.9844H42.0298C42.0129 26.9844 42.0001 26.9738 41.9916 26.9526C41.9831 26.9314 41.9853 26.9186 41.998 26.9144L42.8322 26.5068C42.8577 26.4983 42.8726 26.4941 42.8768 26.4941C42.9193 26.4941 42.9617 26.5408 43.0042 26.6342C43.0466 26.7234 43.0721 26.8422 43.0806 26.9908C43.2462 26.804 43.3841 26.6745 43.4945 26.6024C43.6049 26.5302 43.7047 26.4941 43.7938 26.4941ZM46.9035 28.672C46.9205 28.672 46.9311 28.6826 46.9354 28.7038C46.9396 28.7208 46.9332 28.7336 46.9163 28.742L46.2604 29.0541C46.2434 29.0626 46.2243 29.0668 46.203 29.0668C46.1394 29.0668 46.0778 29.0307 46.0184 28.9586C45.9632 28.8821 45.9271 28.7824 45.9101 28.6593L45.6172 28.863C45.5153 28.9352 45.4219 28.9862 45.337 29.0159C45.2563 29.0456 45.165 29.0604 45.0631 29.0604C44.8891 29.0604 44.7554 29.0201 44.662 28.9395C44.5728 28.8545 44.5282 28.7442 44.5282 28.6083C44.5282 28.4937 44.5579 28.4003 44.6174 28.3281C44.6811 28.2559 44.7596 28.1986 44.853 28.1562C44.9506 28.1095 45.0929 28.0522 45.2797 27.9842L45.8974 27.755V27.3729C45.8974 27.1097 45.8698 26.9186 45.8146 26.7998C45.7636 26.6767 45.6809 26.6151 45.5662 26.6151C45.4261 26.6151 45.3242 26.6682 45.2606 26.7743C45.2011 26.8762 45.165 26.9908 45.1523 27.1182C45.1268 27.3347 45.0186 27.4429 44.8275 27.4429C44.7341 27.4429 44.6641 27.4217 44.6174 27.3793C44.5749 27.3368 44.5537 27.2837 44.5537 27.2201C44.5537 27.1012 44.6238 26.9866 44.7638 26.8762C44.9082 26.7616 45.0801 26.6703 45.2797 26.6024C45.4834 26.5302 45.6618 26.4941 45.8146 26.4941C45.9971 26.4941 46.1415 26.5514 46.2476 26.666C46.358 26.7807 46.4132 26.9526 46.4132 27.1819V28.3281C46.4132 28.4597 46.4344 28.5595 46.4769 28.6274C46.5193 28.6953 46.5809 28.7293 46.6615 28.7293C46.7252 28.7293 46.8016 28.7102 46.8908 28.672H46.9035ZM45.8974 28.5574V28.4937V27.8632L45.5153 28.0224C45.4049 28.0649 45.3136 28.1158 45.2415 28.1753C45.1735 28.2305 45.1396 28.3111 45.1396 28.4173C45.1396 28.5192 45.1714 28.6019 45.2351 28.6656C45.303 28.7251 45.3837 28.7548 45.4771 28.7548C45.5535 28.7548 45.6342 28.7293 45.7191 28.6784L45.8974 28.5574ZM48.9536 28.6083C48.9663 28.6083 48.9769 28.6168 48.9854 28.6338C48.9981 28.6508 48.9981 28.6635 48.9854 28.672C48.8283 28.8206 48.6797 28.9288 48.5396 28.9968C48.3995 29.0604 48.2509 29.0923 48.0939 29.0923C47.9113 29.0923 47.7564 29.0498 47.629 28.9649C47.5059 28.8758 47.4443 28.7293 47.4443 28.5255V27.0863C47.4443 26.9462 47.421 26.8528 47.3743 26.8061C47.3318 26.7594 47.2469 26.7361 47.1196 26.7361C47.1153 26.7361 47.1089 26.7318 47.1004 26.7234C47.0962 26.7106 47.0941 26.6979 47.0941 26.6851C47.0941 26.6724 47.0962 26.6618 47.1004 26.6533C47.1089 26.6406 47.1153 26.6342 47.1196 26.6342C47.5186 26.6172 47.7691 26.4453 47.871 26.1184C47.8795 26.1014 47.8965 26.0929 47.9219 26.0929C47.9516 26.0929 47.9665 26.1014 47.9665 26.1184V26.6215C48.166 26.6172 48.4484 26.596 48.8135 26.5578C48.822 26.5578 48.8304 26.5748 48.8389 26.6087C48.8517 26.6384 48.858 26.6724 48.858 26.7106C48.858 26.7488 48.8496 26.787 48.8326 26.8252C48.8198 26.8635 48.805 26.8804 48.788 26.8762C48.5503 26.821 48.2764 26.787 47.9665 26.7743V28.3154C47.9665 28.4809 48.0068 28.6041 48.0875 28.6847C48.1724 28.7611 48.2892 28.7994 48.4377 28.7994C48.6161 28.7994 48.7837 28.7378 48.9408 28.6147L48.9536 28.6083ZM49.9273 25.8255C49.817 25.8255 49.7299 25.7957 49.6662 25.7363C49.6068 25.6769 49.5771 25.592 49.5771 25.4816C49.5771 25.3754 49.6068 25.2948 49.6662 25.2396C49.7299 25.1802 49.817 25.1504 49.9273 25.1504C50.0335 25.1504 50.1163 25.1802 50.1757 25.2396C50.2351 25.2948 50.2648 25.3754 50.2648 25.4816C50.2648 25.592 50.2351 25.6769 50.1757 25.7363C50.1205 25.7957 50.0377 25.8255 49.9273 25.8255ZM49.3415 29.0159C49.3287 29.0159 49.3224 29.0031 49.3224 28.9777C49.3224 28.9522 49.3287 28.9395 49.3415 28.9395C49.4858 28.9395 49.5813 28.9097 49.628 28.8503C49.6747 28.7909 49.6981 28.6741 49.6981 28.5001V27.3411C49.6981 27.1967 49.6832 27.0927 49.6535 27.029C49.6238 26.9611 49.5728 26.9271 49.5007 26.9271C49.437 26.9271 49.3542 26.9526 49.2523 27.0035H49.2459C49.229 27.0035 49.2162 26.9929 49.2077 26.9717C49.1992 26.9505 49.2014 26.9356 49.2141 26.9271L50.1311 26.5005L50.1502 26.4941C50.1672 26.4941 50.1842 26.5047 50.2012 26.5259C50.2224 26.5429 50.233 26.5578 50.233 26.5705V26.7042C50.2245 26.8826 50.2203 27.0927 50.2203 27.3347V28.5001C50.2203 28.6741 50.2436 28.7909 50.2903 28.8503C50.3413 28.9097 50.4389 28.9395 50.5832 28.9395C50.596 28.9395 50.6024 28.9522 50.6024 28.9777C50.6024 29.0031 50.596 29.0159 50.5832 29.0159C50.4771 29.0159 50.3922 29.0137 50.3285 29.0095L49.9592 29.0031L49.5898 29.0095C49.5304 29.0137 49.4476 29.0159 49.3415 29.0159ZM52.2493 29.0987C51.9946 29.0987 51.7696 29.0392 51.5743 28.9203C51.379 28.7972 51.2283 28.6338 51.1221 28.43C51.016 28.222 50.9629 27.997 50.9629 27.755C50.9629 27.479 51.0309 27.2455 51.1667 27.0545C51.3068 26.8592 51.483 26.7149 51.6953 26.6215C51.9118 26.5238 52.1326 26.475 52.3576 26.475C52.6165 26.475 52.8415 26.5366 53.0326 26.6597C53.2279 26.7828 53.3765 26.9462 53.4783 27.15C53.5802 27.3495 53.6312 27.5639 53.6312 27.7932C53.6312 28.0479 53.5675 28.275 53.4401 28.4746C53.317 28.6741 53.1493 28.8291 52.9371 28.9395C52.7248 29.0456 52.4955 29.0987 52.2493 29.0987ZM52.4403 28.9713C52.6271 28.9713 52.7694 28.8885 52.867 28.7229C52.9689 28.5574 53.0198 28.3154 53.0198 27.997C53.0198 27.7125 52.9795 27.4642 52.8988 27.2519C52.8224 27.0396 52.7163 26.8783 52.5804 26.7679C52.4488 26.6575 52.3045 26.6024 52.1474 26.6024C51.9564 26.6024 51.812 26.6809 51.7144 26.838C51.6167 26.9951 51.5679 27.2264 51.5679 27.5321C51.5679 27.8081 51.604 28.0564 51.6762 28.2772C51.7526 28.4937 51.8566 28.6635 51.9882 28.7866C52.1241 28.9097 52.2748 28.9713 52.4403 28.9713ZM57.0593 28.9395C57.072 28.9395 57.0784 28.9522 57.0784 28.9777C57.0784 29.0031 57.072 29.0159 57.0593 29.0159C56.9532 29.0159 56.8704 29.0137 56.811 29.0095L56.4416 29.0031L56.0786 29.0095C56.0149 29.0137 55.93 29.0159 55.8239 29.0159C55.8112 29.0159 55.8048 29.0031 55.8048 28.9777C55.8048 28.9522 55.8112 28.9395 55.8239 28.9395C55.9682 28.9395 56.0638 28.9097 56.1105 28.8503C56.1572 28.7909 56.1805 28.6741 56.1805 28.5001V27.5448C56.1805 27.3071 56.1359 27.133 56.0468 27.0227C55.9619 26.908 55.826 26.8507 55.6392 26.8507C55.5288 26.8507 55.4163 26.8762 55.3017 26.9271C55.1871 26.9781 55.0831 27.046 54.9897 27.1309V28.5001C54.9897 28.6741 55.013 28.7909 55.0597 28.8503C55.1064 28.9097 55.2019 28.9395 55.3463 28.9395C55.359 28.9395 55.3654 28.9522 55.3654 28.9777C55.3654 29.0031 55.359 29.0159 55.3463 29.0159C55.2402 29.0159 55.1574 29.0137 55.0979 29.0095L54.7286 29.0031L54.3592 29.0095C54.2998 29.0137 54.217 29.0159 54.1109 29.0159C54.0981 29.0159 54.0918 29.0031 54.0918 28.9777C54.0918 28.9522 54.0981 28.9395 54.1109 28.9395C54.2552 28.9395 54.3507 28.9097 54.3974 28.8503C54.4441 28.7909 54.4675 28.6741 54.4675 28.5001V27.2837C54.4675 27.1479 54.4505 27.0481 54.4165 26.9844C54.3868 26.9208 54.3359 26.8889 54.2637 26.8889C54.2 26.8889 54.0939 26.9208 53.9453 26.9844H53.9389C53.922 26.9844 53.9092 26.9738 53.9007 26.9526C53.8922 26.9314 53.8944 26.9186 53.9071 26.9144L54.7413 26.5068C54.7668 26.4983 54.7817 26.4941 54.7859 26.4941C54.8283 26.4941 54.8708 26.5429 54.9133 26.6406C54.96 26.734 54.9854 26.8571 54.9897 27.0099C55.2869 26.6575 55.6095 26.4814 55.9576 26.4814C56.1911 26.4814 56.3737 26.5535 56.5053 26.6979C56.6369 26.838 56.7027 27.029 56.7027 27.271V28.5001C56.7027 28.6741 56.726 28.7909 56.7727 28.8503C56.8194 28.9097 56.915 28.9395 57.0593 28.9395ZM59.72 25.7108C59.72 25.8679 59.7582 26.008 59.8346 26.1311C59.9153 26.25 60.0129 26.354 60.1275 26.4432C60.2464 26.5323 60.4056 26.6384 60.6051 26.7616C60.8217 26.8974 60.9915 27.0142 61.1146 27.1118C61.242 27.2095 61.3481 27.3304 61.433 27.4748C61.5222 27.6149 61.5667 27.7805 61.5667 27.9715C61.5667 28.188 61.5094 28.3812 61.3948 28.551C61.2844 28.7208 61.1252 28.8545 60.9172 28.9522C60.7134 29.0456 60.4799 29.0923 60.2167 29.0923C60.0384 29.0923 59.8537 29.0689 59.6627 29.0222C59.4759 28.9755 59.3336 28.9182 59.236 28.8503C59.1978 28.8248 59.1766 28.7845 59.1723 28.7293L59.1341 27.7614V27.755C59.1341 27.738 59.1447 27.7295 59.166 27.7295C59.1872 27.7253 59.1999 27.7316 59.2042 27.7486C59.3443 28.101 59.5035 28.3897 59.6818 28.6147C59.8643 28.8397 60.0957 28.9522 60.3759 28.9522C60.5584 28.9522 60.7113 28.9034 60.8344 28.8057C60.9575 28.7038 61.0191 28.5361 61.0191 28.3026C61.0191 28.1158 60.9766 27.9524 60.8917 27.8123C60.811 27.6722 60.7092 27.5555 60.586 27.4621C60.4672 27.3687 60.3037 27.254 60.0957 27.1182C59.8919 26.9866 59.7327 26.8762 59.6181 26.787C59.5035 26.6936 59.4058 26.5811 59.3252 26.4495C59.2445 26.3137 59.2042 26.1566 59.2042 25.9783C59.2042 25.7575 59.2657 25.5707 59.3888 25.4179C59.512 25.2651 59.6712 25.1526 59.8664 25.0804C60.066 25.004 60.274 24.9658 60.4905 24.9658C60.6349 24.9658 60.7792 24.9806 60.9235 25.0103C61.0679 25.0358 61.1889 25.0698 61.2865 25.1122C61.3502 25.1377 61.3821 25.178 61.3821 25.2332L61.4012 26.0993C61.4012 26.112 61.3884 26.1205 61.3629 26.1248C61.3417 26.129 61.329 26.1248 61.3247 26.112C61.2398 25.853 61.1252 25.6195 60.9809 25.4115C60.8408 25.1993 60.6285 25.0931 60.3441 25.0931C60.153 25.0931 60.0002 25.1483 59.8855 25.2587C59.7752 25.3691 59.72 25.5198 59.72 25.7108ZM64.3167 28.6147C64.3252 28.6147 64.3337 28.6232 64.3422 28.6402C64.3549 28.6571 64.357 28.6699 64.3485 28.6784C64.1915 28.8227 64.0344 28.9288 63.8773 28.9968C63.7202 29.0604 63.5504 29.0923 63.3679 29.0923C63.1089 29.0923 62.8839 29.035 62.6928 28.9203C62.506 28.8057 62.3617 28.655 62.2598 28.4682C62.1622 28.2814 62.1133 28.0798 62.1133 27.8632C62.1133 27.6128 62.1749 27.3835 62.298 27.1755C62.4211 26.9675 62.5888 26.804 62.8011 26.6851C63.0176 26.562 63.2575 26.5005 63.5207 26.5005C63.7754 26.5005 63.9728 26.562 64.1129 26.6851C64.253 26.8083 64.3231 26.9908 64.3231 27.2328C64.3231 27.3559 64.2976 27.4175 64.2467 27.4175L62.6928 27.4238C62.6886 27.4621 62.6865 27.5194 62.6865 27.5958C62.6865 27.9694 62.7714 28.2666 62.9412 28.4873C63.1153 28.7038 63.3615 28.8121 63.6799 28.8121C63.7988 28.8121 63.8985 28.7994 63.9792 28.7739C64.0599 28.7442 64.1681 28.6932 64.304 28.621L64.3167 28.6147ZM63.2914 26.6278C63.1344 26.6278 63.0049 26.6894 62.903 26.8125C62.8053 26.9314 62.7395 27.0969 62.7056 27.3092L63.7245 27.2901C63.716 26.8486 63.5716 26.6278 63.2914 26.6278ZM66.3993 26.4941C66.497 26.4941 66.5904 26.5259 66.6795 26.5896C66.7687 26.6533 66.8132 26.7297 66.8132 26.8189C66.8132 26.8995 66.7878 26.9653 66.7368 27.0163C66.6901 27.0672 66.6243 27.0927 66.5394 27.0927C66.4842 27.0927 66.4375 27.0821 66.3993 27.0609C66.3654 27.0354 66.3293 27.0014 66.2911 26.959C66.2529 26.9208 66.2189 26.8932 66.1892 26.8762C66.1595 26.855 66.1234 26.8443 66.0809 26.8443C66.0342 26.8443 65.9833 26.8635 65.9281 26.9017C65.8771 26.9356 65.7965 27.0099 65.6861 27.1245V28.5001C65.6861 28.6189 65.7031 28.7102 65.737 28.7739C65.771 28.8333 65.8283 28.8758 65.909 28.9012C65.9896 28.9267 66.1085 28.9395 66.2656 28.9395C66.2826 28.9395 66.2911 28.9522 66.2911 28.9777C66.2911 29.0031 66.2826 29.0159 66.2656 29.0159C66.1255 29.0159 66.013 29.0137 65.9281 29.0095L65.425 29.0031L65.0557 29.0095C64.9962 29.0137 64.9134 29.0159 64.8073 29.0159C64.7946 29.0159 64.7882 29.0031 64.7882 28.9777C64.7882 28.9522 64.7946 28.9395 64.8073 28.9395C64.9516 28.9395 65.0472 28.9097 65.0939 28.8503C65.1406 28.7909 65.1639 28.6741 65.1639 28.5001V27.2837C65.1639 27.1479 65.1469 27.0481 65.113 26.9844C65.0832 26.9208 65.0323 26.8889 64.9601 26.8889C64.8964 26.8889 64.7903 26.9208 64.6417 26.9844H64.6354C64.6184 26.9844 64.6056 26.9738 64.5971 26.9526C64.5887 26.9314 64.5908 26.9186 64.6035 26.9144L65.4377 26.5068C65.4632 26.4983 65.4781 26.4941 65.4823 26.4941C65.5248 26.4941 65.5672 26.5408 65.6097 26.6342C65.6521 26.7234 65.6776 26.8422 65.6861 26.9908C65.8517 26.804 65.9896 26.6745 66.1 26.6024C66.2104 26.5302 66.3102 26.4941 66.3993 26.4941ZM69.7682 26.5578C69.7767 26.5578 69.7809 26.5705 69.7809 26.596C69.7809 26.6215 69.7767 26.6342 69.7682 26.6342C69.6493 26.6342 69.5453 26.6767 69.4562 26.7616C69.3713 26.8465 69.2885 26.9823 69.2078 27.1691L68.4182 29.0159C68.4097 29.0371 68.3884 29.0477 68.3545 29.0477C68.3163 29.0477 68.2908 29.0371 68.2781 29.0159L67.3356 27.0863C67.2464 26.8995 67.17 26.7785 67.1063 26.7234C67.0427 26.6639 66.9641 26.6342 66.8707 26.6342C66.858 26.6342 66.8516 26.6215 66.8516 26.596C66.8516 26.5705 66.858 26.5578 66.8707 26.5578C66.9471 26.5578 67.0087 26.5599 67.0554 26.5642L67.4247 26.5705L67.896 26.5642C67.9639 26.5599 68.0573 26.5578 68.1762 26.5578C68.1889 26.5578 68.1953 26.5705 68.1953 26.596C68.1953 26.6215 68.1889 26.6342 68.1762 26.6342C67.9257 26.6342 67.8005 26.683 67.8005 26.7807C67.8005 26.8061 67.8111 26.8401 67.8323 26.8826L68.5646 28.3281L69.0486 27.1564C69.0783 27.0842 69.0932 27.0142 69.0932 26.9462C69.0932 26.8443 69.055 26.7679 68.9786 26.717C68.9064 26.6618 68.7981 26.6342 68.6538 26.6342C68.6453 26.6342 68.641 26.6215 68.641 26.596C68.641 26.5705 68.6453 26.5578 68.6538 26.5578C68.7684 26.5578 68.8554 26.5599 68.9149 26.5642L69.297 26.5705L69.5453 26.5642C69.592 26.5599 69.6663 26.5578 69.7682 26.5578ZM70.5863 25.8255C70.476 25.8255 70.3889 25.7957 70.3253 25.7363C70.2658 25.6769 70.2361 25.592 70.2361 25.4816C70.2361 25.3754 70.2658 25.2948 70.3253 25.2396C70.3889 25.1802 70.476 25.1504 70.5863 25.1504C70.6925 25.1504 70.7753 25.1802 70.8347 25.2396C70.8941 25.2948 70.9239 25.3754 70.9239 25.4816C70.9239 25.592 70.8941 25.6769 70.8347 25.7363C70.7795 25.7957 70.6967 25.8255 70.5863 25.8255ZM70.0005 29.0159C69.9877 29.0159 69.9814 29.0031 69.9814 28.9777C69.9814 28.9522 69.9877 28.9395 70.0005 28.9395C70.1448 28.9395 70.2403 28.9097 70.287 28.8503C70.3337 28.7909 70.3571 28.6741 70.3571 28.5001V27.3411C70.3571 27.1967 70.3422 27.0927 70.3125 27.029C70.2828 26.9611 70.2319 26.9271 70.1597 26.9271C70.096 26.9271 70.0132 26.9526 69.9113 27.0035H69.905C69.888 27.0035 69.8752 26.9929 69.8667 26.9717C69.8583 26.9505 69.8604 26.9356 69.8731 26.9271L70.7901 26.5005L70.8092 26.4941C70.8262 26.4941 70.8432 26.5047 70.8602 26.5259C70.8814 26.5429 70.892 26.5578 70.892 26.5705V26.7042C70.8835 26.8826 70.8793 27.0927 70.8793 27.3347V28.5001C70.8793 28.6741 70.9026 28.7909 70.9493 28.8503C71.0003 28.9097 71.0979 28.9395 71.2423 28.9395C71.255 28.9395 71.2614 28.9522 71.2614 28.9777C71.2614 29.0031 71.255 29.0159 71.2423 29.0159C71.1361 29.0159 71.0512 29.0137 70.9875 29.0095L70.6182 29.0031L70.2488 29.0095C70.1894 29.0137 70.1066 29.0159 70.0005 29.0159ZM72.8956 29.0923C72.6196 29.0923 72.384 29.0329 72.1887 28.914C71.9977 28.7909 71.8555 28.6338 71.7621 28.4427C71.6687 28.2475 71.622 28.0437 71.622 27.8314C71.622 27.5639 71.6941 27.3304 71.8385 27.1309C71.9828 26.9271 72.1675 26.7722 72.3925 26.666C72.6218 26.5557 72.8531 26.5005 73.0866 26.5005C73.2862 26.5005 73.4666 26.5408 73.6279 26.6215C73.7892 26.7021 73.8699 26.8104 73.8699 26.9462C73.8699 27.0184 73.8423 27.0821 73.7871 27.1373C73.7319 27.1882 73.6555 27.2137 73.5579 27.2137C73.3965 27.2137 73.2798 27.1182 73.2076 26.9271C73.1652 26.821 73.1206 26.7467 73.0739 26.7042C73.0272 26.6575 72.9529 26.6342 72.851 26.6342C72.6515 26.6342 72.4923 26.7255 72.3734 26.908C72.2588 27.0863 72.2015 27.3262 72.2015 27.6276C72.2015 27.98 72.2821 28.2666 72.4434 28.4873C72.609 28.7038 72.8659 28.8121 73.214 28.8121C73.3329 28.8121 73.439 28.7972 73.5324 28.7675C73.6258 28.7378 73.7277 28.6911 73.8381 28.6274H73.8444C73.8572 28.6274 73.8678 28.6338 73.8763 28.6465C73.889 28.6593 73.8911 28.6699 73.8826 28.6784C73.7256 28.8185 73.5706 28.9225 73.4178 28.9904C73.2649 29.0583 73.0909 29.0923 72.8956 29.0923ZM76.4621 28.6147C76.4706 28.6147 76.4791 28.6232 76.4876 28.6402C76.5003 28.6571 76.5024 28.6699 76.4939 28.6784C76.3369 28.8227 76.1798 28.9288 76.0227 28.9968C75.8656 29.0604 75.6958 29.0923 75.5133 29.0923C75.2543 29.0923 75.0293 29.035 74.8382 28.9203C74.6514 28.8057 74.5071 28.655 74.4052 28.4682C74.3076 28.2814 74.2587 28.0798 74.2587 27.8632C74.2587 27.6128 74.3203 27.3835 74.4434 27.1755C74.5665 26.9675 74.7342 26.804 74.9465 26.6851C75.163 26.562 75.4029 26.5005 75.6661 26.5005C75.9208 26.5005 76.1182 26.562 76.2583 26.6851C76.3984 26.8083 76.4685 26.9908 76.4685 27.2328C76.4685 27.3559 76.443 27.4175 76.3921 27.4175L74.8382 27.4238C74.834 27.4621 74.8319 27.5194 74.8319 27.5958C74.8319 27.9694 74.9168 28.2666 75.0866 28.4873C75.2607 28.7038 75.5069 28.8121 75.8253 28.8121C75.9442 28.8121 76.0439 28.7994 76.1246 28.7739C76.2053 28.7442 76.3135 28.6932 76.4494 28.621L76.4621 28.6147ZM75.4368 26.6278C75.2798 26.6278 75.1503 26.6894 75.0484 26.8125C74.9507 26.9314 74.8849 27.0969 74.851 27.3092L75.8699 27.2901C75.8614 26.8486 75.717 26.6278 75.4368 26.6278ZM77.4048 26.8889C77.4048 27.0205 77.4494 27.1309 77.5386 27.2201C77.632 27.3092 77.7657 27.4026 77.9398 27.5003C78.0926 27.5852 78.2093 27.6552 78.29 27.7104C78.3749 27.7656 78.4471 27.8399 78.5065 27.9333C78.5702 28.0267 78.602 28.1392 78.602 28.2708C78.602 28.4151 78.566 28.5489 78.4938 28.672C78.4216 28.7951 78.3134 28.8949 78.169 28.9713C78.0289 29.0477 77.8612 29.0859 77.6659 29.0859C77.4324 29.0859 77.218 29.0265 77.0228 28.9076C76.9973 28.8821 76.9845 28.8567 76.9845 28.8312L76.9718 28.2453C76.9718 28.2326 76.9824 28.2262 77.0036 28.2262C77.0291 28.222 77.044 28.2241 77.0482 28.2326C77.1204 28.4449 77.2287 28.6189 77.373 28.7548C77.5216 28.8906 77.6787 28.9586 77.8442 28.9586C77.9504 28.9586 78.0332 28.931 78.0926 28.8758C78.152 28.8206 78.1817 28.7378 78.1817 28.6274C78.1817 28.4661 78.135 28.3387 78.0416 28.2453C77.9483 28.1477 77.8124 28.0522 77.6341 27.9588C77.4897 27.8823 77.3772 27.8187 77.2966 27.7677C77.2159 27.7125 77.1459 27.6404 77.0864 27.5512C77.0312 27.4578 77.0036 27.3432 77.0036 27.2073C77.0036 26.9653 77.0907 26.7849 77.2647 26.666C77.443 26.5472 77.6574 26.4877 77.9079 26.4877C78.0735 26.4877 78.2433 26.5196 78.4174 26.5833C78.4556 26.6002 78.4747 26.6236 78.4747 26.6533C78.4747 26.7509 78.4726 26.8274 78.4683 26.8826L78.4619 27.1882C78.4619 27.201 78.4492 27.2073 78.4237 27.2073C78.3983 27.2073 78.3855 27.201 78.3855 27.1882C78.3855 27.1033 78.3516 27.0163 78.2836 26.9271C78.2157 26.8337 78.1287 26.7573 78.0225 26.6979C77.9164 26.6384 77.8082 26.6087 77.6978 26.6087C77.5025 26.6087 77.4048 26.7021 77.4048 26.8889Z" fill="#333333"/>
</svg>
