<svg width="18" height="13" viewBox="0 0 18 13" fill="none" xmlns="http://www.w3.org/2000/svg">
<path d="M6.17671 9.43149L14.9077 0.658892C15.179 0.386297 15.5242 0.25 15.9435 0.25C16.3628 0.25 16.7081 0.386297 16.9794 0.658892C17.2507 0.931486 17.3864 1.27842 17.3864 1.69971C17.3864 2.12099 17.2507 2.46793 16.9794 2.74053L7.21258 12.5539C6.91662 12.8513 6.57133 13 6.17671 13C5.78209 13 5.4368 12.8513 5.14084 12.5539L1.2933 8.68805C1.022 8.41545 0.886353 8.06851 0.886353 7.64723C0.886353 7.22595 1.022 6.87901 1.2933 6.60641C1.5646 6.33382 1.90989 6.19752 2.32918 6.19752C2.74846 6.19752 3.09375 6.33382 3.36505 6.60641L6.17671 9.43149Z" fill="#2CD674"/>
</svg>
