<svg width="22" height="19" viewBox="0 0 22 19" fill="none" xmlns="http://www.w3.org/2000/svg">
<path opacity="0.2" d="M21.9247 3.49284C21.7074 3.08389 20.9662 2.80274 19.701 2.66216C19.0109 2.58549 17.7329 2.50881 16.9406 2.91776C13.3623 4.78359 10.4485 7.69736 7.98202 10.4067L6.60182 7.94018C6.49958 7.77404 6.28232 7.36509 4.31425 7.19896C3.62415 7.14784 2.37174 7.09672 1.79665 7.41621C1.3877 7.64625 1.24712 8.09354 1.46438 8.48971L4.90212 14.6367C5.05547 14.9051 5.37496 15.1735 6.75517 15.3268C6.94687 15.3524 7.20246 15.378 7.48361 15.3907C8.37819 15.4419 9.55392 15.4291 9.9501 14.9946C10.3718 14.5217 10.8063 14.0489 11.2153 13.576C14.2952 10.1255 17.4773 6.54719 21.5796 4.41298C22.0141 4.20851 22.078 3.78678 21.9247 3.49284Z" fill="black"/>
<path d="M21.196 2.53445C20.966 2.13828 20.1992 1.90824 18.9212 1.84435C18.2183 1.80601 16.9404 1.81879 16.1864 2.26608C12.7231 4.33639 10.001 7.42907 7.68788 10.2789L6.16709 7.90192C6.06485 7.73578 5.80926 7.35239 3.82841 7.30127C3.12552 7.28849 1.88589 7.31405 1.32359 7.67189C0.927416 7.92748 0.812399 8.38755 1.05521 8.77094L4.85078 14.7007C5.01692 14.9563 5.36197 15.2119 6.74218 15.2758C6.93387 15.2886 7.18947 15.3014 7.4834 15.3014C8.37798 15.3014 9.55371 15.2119 9.92432 14.7518C10.3205 14.2534 10.7167 13.755 11.1001 13.2694C13.9883 9.63996 16.9532 5.88273 20.9149 3.50571C21.3238 3.25011 21.3749 2.82838 21.196 2.53445Z" fill="white"/>
<path d="M16.4803 2.76445C12.9404 4.88588 10.2055 8.05525 7.6368 11.2757C6.98503 10.2534 6.33327 9.24376 5.6815 8.22138C5.38757 7.7741 1.06803 7.7102 1.55366 8.4642C2.81885 10.4451 4.08404 12.4131 5.34923 14.394C5.6176 14.8285 9.11924 14.8413 9.47707 14.394C12.7615 10.2789 15.9947 5.7549 20.5954 2.99449C21.3622 2.5472 17.6689 2.04879 16.4803 2.76445Z" fill="#2CD674"/>
</svg>
